<?xml version="1.0" standalone="no"?>
<!DOCTYPE svg PUBLIC "-//W3C//DTD SVG 20010904//EN"
 "http://www.w3.org/TR/2001/REC-SVG-20010904/DTD/svg10.dtd">
<svg version="1.0" xmlns="http://www.w3.org/2000/svg"
 width="864.000000pt" height="1152.000000pt" viewBox="0 0 864.000000 1152.000000"
 preserveAspectRatio="xMidYMid meet">
<metadata>
Created by potrace 1.16, written by Peter Selinger 2001-2019
</metadata>
<g transform="translate(0.000000,1152.000000) scale(0.100000,-0.100000)"
fill="#000000" stroke="none">
<path d="M1090 11505 c0 -28 29 -85 57 -114 35 -35 101 -108 173 -191 109
-126 137 -153 148 -146 18 11 11 230 -14 424 l-5 42 -180 0 c-154 0 -179 -2
-179 -15z"/>
<path d="M2454 11508 c-44 -63 -83 -186 -90 -288 -4 -49 7 -212 30 -465 20
-214 51 -565 71 -780 19 -214 39 -435 45 -490 6 -55 19 -208 30 -340 23 -265
54 -628 69 -805 6 -63 17 -202 26 -309 17 -215 34 -280 92 -369 61 -91 175
-167 291 -193 32 -7 141 -8 342 -2 162 4 307 7 323 5 15 -1 27 3 27 10 0 6 2
9 5 6 9 -9 -7 -38 -21 -38 -7 0 -21 -15 -30 -32 -17 -33 -50 -77 -91 -123 -13
-15 -33 -25 -49 -25 -26 0 -27 0 -9 -20 18 -19 17 -20 -3 -20 -18 0 -22 -6
-22 -30 0 -41 -37 -43 -43 -2 -3 20 -4 16 -6 -14 -1 -33 -7 -45 -32 -63 -22
-16 -28 -26 -20 -34 14 -14 110 32 111 53 0 12 16 16 73 18 77 3 154 31 165
61 3 9 14 24 25 33 20 18 53 126 41 137 -4 3 -9 0 -12 -8 -3 -8 -15 -24 -27
-35 -25 -25 -85 -113 -85 -126 0 -12 -33 -30 -54 -30 -10 0 -13 6 -10 15 9 23
-23 18 -36 -5 -13 -24 -26 -26 -34 -5 -3 9 3 24 14 35 11 11 20 26 20 32 0 7
11 24 25 38 85 87 105 110 105 122 0 17 51 68 68 68 17 0 15 -26 -3 -44 -21
-20 -19 -36 5 -36 16 0 20 7 20 33 1 58 26 130 50 146 23 15 23 15 16 -14 -5
-17 -10 -93 -13 -171 l-5 -141 24 2 c17 1 23 8 22 23 0 12 -1 47 -2 77 -1 37
-6 54 -14 52 -6 -1 -14 6 -16 16 -3 13 1 17 15 15 15 -3 19 6 23 52 5 48 6 51
12 25 11 -44 2 -306 -10 -335 l-11 -25 0 26 c-1 20 -7 28 -26 31 -22 5 -25 2
-26 -26 -3 -88 7 -119 40 -121 15 -1 21 4 21 19 1 20 1 20 15 3 7 -11 17 -37
20 -58 4 -25 15 -45 29 -55 13 -8 28 -25 34 -39 6 -14 18 -25 26 -25 16 0 31
-35 27 -62 -3 -22 25 -66 62 -99 17 -15 28 -33 26 -44 -4 -16 -7 -15 -29 8
-14 15 -32 27 -41 27 -19 0 -45 28 -93 103 -21 31 -42 57 -46 57 -17 0 -19
-31 -5 -71 21 -58 20 -58 -27 -6 -68 72 -108 84 -108 31 0 -27 -3 -28 -30 -14
-25 13 -50 3 -50 -21 0 -21 132 -204 152 -212 7 -3 3 -6 -8 -6 -13 -1 -29 10
-38 24 -9 14 -22 25 -29 25 -25 0 -123 121 -109 134 11 11 -20 26 -55 26 -45
0 -113 76 -113 126 0 11 -6 29 -14 39 -19 26 -104 23 -128 -5 -10 -12 -19 -16
-23 -10 -3 5 -1 10 4 10 6 0 11 5 11 12 0 6 -11 2 -23 -11 -16 -14 -31 -19
-43 -15 -14 4 -16 3 -5 -4 16 -11 5 -36 -11 -26 -8 5 -9 1 -4 -11 5 -14 4 -16
-8 -6 -7 6 -22 9 -32 5 -14 -4 -11 2 9 20 15 14 24 26 18 26 -5 0 -21 -10 -34
-23 -22 -19 -23 -24 -10 -36 12 -11 13 -15 1 -22 -7 -5 -17 -9 -23 -9 -5 0 -4
4 4 9 8 5 9 11 3 15 -15 9 -25 -12 -18 -39 8 -32 53 -73 88 -80 34 -8 47 -25
18 -25 -55 0 -130 58 -130 100 0 21 -26 34 -36 18 -4 -7 -3 -8 4 -4 8 5 12 0
12 -13 0 -19 -2 -20 -20 -9 -16 11 -22 9 -34 -7 -15 -20 -15 -19 -16 4 0 24 0
24 -20 6 -12 -10 -18 -26 -15 -35 5 -16 -24 -60 -40 -60 -8 0 -3 32 10 65 8
20 8 20 -13 1 -12 -11 -22 -31 -22 -45 0 -24 -19 -68 -20 -46 0 6 -10 -5 -21
-23 -24 -36 -30 -125 -15 -194 8 -33 4 -45 -32 -105 -41 -70 -72 -160 -93
-271 -7 -37 -15 -58 -19 -51 -5 6 -15 9 -23 6 -9 -3 -17 -1 -19 5 -3 7 -30 12
-63 13 -43 2 -61 7 -72 20 -22 31 -15 9 22 -69 26 -53 34 -82 30 -102 -4 -21
-3 -24 3 -10 10 24 20 11 27 -37 6 -37 -10 -60 -26 -36 -5 8 -9 10 -9 5 0 -5
-7 -2 -17 5 -9 8 -24 13 -34 11 -10 -2 -19 5 -22 15 -3 10 -5 1 -6 -19 0 -21
4 -38 10 -38 13 0 44 -30 32 -31 -4 -1 -15 -1 -23 0 -9 1 -24 -13 -34 -30 -23
-38 -9 -53 42 -44 19 4 32 2 32 -5 0 -5 -6 -10 -14 -10 -8 0 -16 -7 -20 -15
-3 -8 -12 -15 -20 -15 -25 0 -7 -27 30 -45 38 -18 44 -40 14 -50 -11 -3 -20
-13 -20 -22 0 -9 -10 -31 -21 -50 -13 -20 -18 -38 -13 -42 14 -9 16 -61 3 -61
-6 0 -9 -5 -7 -12 6 -16 100 -21 110 -5 5 7 8 1 8 -16 0 -19 6 -30 18 -33 14
-4 16 -14 14 -50 -2 -24 0 -44 4 -44 5 0 9 -18 8 -40 0 -30 2 -37 12 -30 16
14 27 -31 15 -63 -6 -14 -9 -27 -8 -29 1 -2 -2 3 -8 11 -5 8 -22 25 -37 39
-31 28 -36 52 -13 52 8 0 15 5 15 11 0 7 -10 9 -26 6 -22 -4 -31 4 -66 52 -22
31 -46 61 -53 66 -7 6 -24 33 -38 61 -14 28 -32 56 -41 63 -8 7 -18 25 -21 41
-3 15 -20 43 -38 61 -50 52 -121 150 -149 204 -102 198 -152 292 -162 305 -24
29 -95 157 -112 201 -19 48 -60 118 -79 134 -19 16 -76 116 -73 127 4 11 61
34 123 49 22 6 47 17 56 25 8 7 38 17 65 20 53 7 124 38 124 55 0 16 -81 119
-94 119 -6 0 -22 -7 -34 -16 -12 -8 -36 -19 -52 -24 -37 -10 -40 -2 -40 101 0
43 -4 79 -10 79 -12 0 -23 -61 -18 -105 3 -23 0 -35 -8 -35 -16 0 -118 130
-146 184 -22 42 -25 46 -76 89 l-34 27 -28 -20 c-37 -26 -52 -87 -55 -230 -3
-156 -14 -228 -36 -248 -10 -10 -59 -38 -108 -62 -87 -43 -91 -46 -91 -78 0
-30 19 -178 55 -417 8 -55 15 -110 15 -123 0 -13 4 -21 8 -18 4 2 8 -3 8 -12
4 -70 63 -471 105 -712 49 -278 45 -329 -32 -386 -33 -24 -32 -28 9 -24 13 1
29 -3 36 -9 8 -6 50 -17 94 -23 65 -10 129 -9 344 6 460 31 638 37 818 30 96
-4 300 -6 453 -5 301 3 292 5 262 -53 -9 -17 -14 -41 -11 -55 3 -14 0 -57 -7
-96 l-12 -70 -49 -7 c-27 -4 -52 -12 -57 -19 -14 -23 -451 -32 -689 -14 -41 3
-136 7 -210 10 -599 22 -738 25 -903 24 -104 0 -191 2 -195 6 -3 3 -12 -5 -19
-17 -11 -21 -12 -22 -13 -3 0 11 -5 27 -11 35 -17 24 -4 -139 15 -184 9 -21
29 -53 45 -71 16 -19 32 -42 35 -53 4 -11 16 -22 26 -25 26 -7 26 -37 0 -44
-11 -3 -20 -12 -20 -19 0 -21 -78 -103 -129 -136 -25 -15 -38 -28 -30 -28 33
-1 -41 -30 -101 -39 -91 -15 -596 -43 -1018 -57 l-192 -6 0 -110 0 -110 92 6
93 5 -92 -11 -93 -10 0 -44 0 -43 92 -4 93 -3 -92 -2 -93 -2 0 -47 0 -48 107
1 c60 0 79 -1 43 -2 -36 -2 -84 -6 -107 -10 l-43 -5 0 -46 0 -46 107 6 c58 4
103 4 100 0 -9 -9 -37 -11 -129 -12 l-78 -1 0 -46 0 -47 123 5 c67 3 113 2
102 -3 -11 -4 -66 -8 -122 -8 l-103 -1 0 -47 0 -48 122 2 c144 2 137 -3 -14
-12 l-108 -7 0 -43 0 -42 123 2 c122 3 113 0 -40 -11 l-83 -6 0 -43 0 -44 133
6 c72 3 130 3 127 0 -5 -5 -141 -16 -217 -17 l-43 0 0 -45 0 -44 137 4 138 3
-138 -10 -137 -10 0 -42 0 -41 142 2 c103 1 132 -1 103 -7 -22 -5 -86 -9 -142
-9 l-103 -1 0 -75 0 -75 108 0 c275 1 1017 39 1172 61 77 10 200 60 200 81 0
6 3 9 6 6 3 -4 -2 -21 -11 -38 -19 -36 -23 -29 87 -141 21 -20 38 -45 38 -53
0 -9 8 -16 19 -16 10 0 21 -6 24 -14 3 -8 16 -16 29 -18 l23 -3 -27 -26 c-34
-32 -35 -39 -6 -31 31 8 146 126 154 157 3 14 10 25 15 25 5 0 9 9 9 20 0 23
15 27 23 6 9 -23 -13 -92 -23 -75 -13 20 -33 -37 -21 -59 7 -12 2 -23 -17 -44
-57 -57 -57 -58 -39 -90 18 -32 23 -78 8 -78 -5 0 -11 6 -14 13 -3 8 -13 4
-31 -13 -15 -13 -41 -29 -58 -35 -41 -13 -52 -40 -14 -33 21 4 26 1 26 -14 0
-26 44 -45 65 -28 12 10 15 10 15 -3 0 -9 15 -21 36 -27 26 -9 33 -15 23 -21
-12 -7 -11 -11 4 -26 11 -11 17 -13 17 -5 0 16 50 61 68 62 6 0 12 -7 12 -15
0 -8 5 -15 11 -15 6 0 9 -8 7 -17 -2 -10 -12 -18 -22 -18 -13 0 -23 -12 -32
-37 -12 -35 -11 -39 7 -49 14 -7 29 -7 49 0 18 6 32 6 35 0 8 -12 25 -12 25 1
0 6 -6 10 -13 10 -7 0 -18 5 -24 11 -18 18 37 59 79 59 19 0 39 5 45 11 6 6
23 9 39 7 26 -3 29 -7 30 -43 1 -74 3 -80 16 -67 8 8 8 15 -1 25 -8 10 -9 22
-2 40 7 17 7 28 1 32 -6 4 -10 17 -10 31 0 15 -6 24 -15 24 -8 0 -15 9 -15 20
0 11 7 20 15 20 8 0 15 5 15 10 0 22 22 8 31 -19 11 -31 29 -32 57 -4 13 13
42 18 42 7 0 -3 -6 -12 -12 -19 -33 -37 -40 -47 -34 -52 3 -3 12 0 20 7 9 6
35 11 58 10 77 -4 78 -4 78 40 0 28 4 40 14 40 11 0 16 -15 18 -52 l3 -51 58
-1 c39 -1 61 -6 67 -15 7 -12 11 -12 24 -2 9 8 16 19 16 26 0 6 9 20 20 30 19
18 20 17 20 -3 0 -36 20 -25 41 23 17 38 24 45 49 45 16 0 31 4 35 9 3 5 18
12 34 16 23 5 28 11 27 35 -1 17 -7 30 -13 30 -7 0 -13 6 -13 13 1 22 38 57
60 57 21 0 22 -3 16 -40 -5 -33 -4 -38 10 -33 8 3 2 -9 -15 -27 -29 -32 -33
-56 -8 -47 6 2 19 -6 29 -17 13 -17 19 -19 29 -9 10 10 19 7 42 -15 28 -26 29
-26 43 -8 12 17 17 18 41 6 16 -8 45 -15 66 -16 21 -1 46 -9 56 -18 25 -23 56
-20 84 8 24 24 47 84 28 72 -18 -12 -23 16 -7 32 16 16 19 15 40 -11 l23 -29
27 28 c14 16 26 32 26 36 0 5 16 8 35 8 30 0 35 -3 35 -24 0 -14 -4 -28 -10
-31 -15 -9 -12 -25 4 -25 7 0 16 9 19 21 10 37 32 15 30 -30 -1 -22 2 -41 8
-41 5 0 9 11 9 24 0 13 6 27 13 30 10 5 10 7 0 12 -7 3 -13 13 -13 22 1 15 2
15 14 0 16 -22 36 -23 36 -3 0 8 -7 15 -15 15 -8 0 -15 7 -15 15 0 19 27 19
46 1 16 -17 19 -77 3 -93 -7 -7 4 -9 38 -6 l49 5 14 -43 c19 -63 20 -63 46
-38 17 16 24 18 24 8 1 -11 4 -10 14 4 17 21 45 22 53 1 6 -17 -41 -63 -64
-64 -27 0 -11 -16 30 -31 33 -13 42 -21 42 -40 0 -21 -5 -24 -38 -24 -23 0
-37 -5 -37 -12 0 -13 18 -18 57 -14 13 1 28 -7 35 -19 14 -22 48 -26 79 -10
23 13 26 40 4 40 -8 0 -15 -5 -15 -11 0 -8 -5 -8 -15 1 -34 28 -8 50 60 50 26
0 33 5 44 35 7 19 16 35 21 35 9 0 23 -56 20 -75 -5 -22 1 -26 15 -11 8 8 15
19 15 25 0 13 39 14 59 2 9 -6 21 -5 32 2 15 9 21 8 32 -7 8 -11 19 -16 25
-12 7 4 12 1 12 -8 0 -18 -25 -22 -35 -6 -3 5 -18 10 -33 10 -23 0 -24 -1 -8
-13 21 -16 14 -37 -22 -61 -15 -10 -19 -15 -9 -12 12 4 17 0 17 -14 0 -10 6
-25 14 -33 8 -7 16 -25 18 -38 2 -20 8 -23 32 -21 16 2 32 -2 37 -9 8 -14 8
-13 24 36 7 22 24 18 35 -8 7 -17 9 -18 9 -4 1 10 9 17 20 17 16 0 21 8 24 42
l4 43 1 -42 c2 -36 5 -43 23 -43 11 0 32 14 46 30 26 31 43 38 43 19 0 -7 8
-18 18 -26 13 -11 14 -16 4 -20 -10 -4 -10 -8 -1 -19 9 -11 8 -18 -1 -29 -10
-12 -10 -19 -2 -27 17 -17 15 -38 -3 -38 -8 0 -15 -7 -15 -15 0 -11 11 -15 36
-15 31 0 35 2 29 20 -4 12 -1 27 5 35 10 12 9 15 -9 15 -12 0 -21 6 -21 15 0
21 27 19 52 -5 12 -11 17 -20 10 -20 -9 0 -9 -6 0 -25 6 -14 17 -25 25 -25 16
0 17 -14 1 -39 -6 -10 -8 -26 -4 -36 6 -17 7 -17 19 -1 7 9 25 18 40 20 15 1
30 6 34 9 11 12 23 8 23 -8 0 -11 11 -15 40 -15 22 0 40 -4 40 -10 0 -5 -18
-10 -40 -10 -22 0 -40 -4 -40 -10 0 -5 -5 -10 -12 -10 -9 0 -9 3 0 12 16 16
15 28 -3 28 -9 0 -18 -7 -21 -15 -4 -9 -19 -15 -35 -15 -16 0 -29 -5 -29 -11
0 -7 11 -8 31 -4 27 6 35 3 55 -21 l23 -29 1 28 c0 22 5 27 24 27 13 0 26 -6
29 -12 3 -10 9 -10 26 -1 27 17 48 16 54 -1 6 -16 -11 -36 -31 -36 -7 0 -10
-4 -7 -10 3 -5 18 -10 32 -10 24 0 25 -2 20 -38 -6 -34 -5 -35 8 -18 8 11 15
16 16 10 0 -5 4 2 10 14 10 26 32 25 37 -2 2 -10 -4 -19 -15 -22 -11 -3 -24
-14 -31 -24 -10 -16 -9 -18 3 -14 8 4 15 11 15 18 0 6 7 2 16 -9 16 -21 15
-75 -1 -87 -6 -4 -2 -8 8 -8 9 0 17 5 17 10 0 6 5 10 10 10 6 0 10 -13 10 -28
0 -21 -7 -32 -25 -40 -14 -6 -25 -20 -25 -30 0 -22 -22 -72 -32 -72 -5 0 -8
-10 -7 -22 l0 -23 9 23 c5 12 16 22 25 22 8 0 15 6 15 13 0 6 5 19 10 27 8 12
14 10 39 -17 39 -43 52 -42 38 2 -7 25 -7 41 1 57 10 22 11 21 11 -9 1 -37 16
-50 36 -33 12 10 18 10 31 -1 13 -10 17 -10 25 2 5 8 9 20 9 27 0 6 5 12 10
12 17 0 11 -38 -7 -49 -15 -8 -15 -13 -5 -36 7 -14 10 -30 7 -35 -6 -10 42
-23 55 -15 6 4 15 -6 20 -20 5 -14 14 -24 19 -21 5 4 11 1 13 -6 3 -8 12 -2
22 15 22 33 36 35 36 5 0 -19 2 -20 11 -8 8 11 9 5 5 -24 -6 -45 -14 -56 -25
-37 -5 8 -11 9 -14 4 -4 -6 0 -18 7 -29 12 -15 16 -16 30 -5 9 7 17 23 17 35
1 17 2 17 6 4 9 -34 23 -17 23 27 0 25 4 45 9 45 19 0 23 -23 11 -60 -17 -53
-6 -110 22 -110 12 0 35 -11 52 -24 17 -13 41 -26 54 -30 15 -5 21 -13 18 -22
-8 -20 32 -57 55 -51 26 7 32 -6 17 -38 -15 -34 2 -56 32 -37 16 10 21 9 29
-6 9 -14 10 -12 11 13 1 26 2 28 11 11 8 -13 8 -25 0 -42 -9 -22 -7 -26 33
-49 24 -14 58 -25 79 -25 19 0 38 -6 40 -12 3 -7 6 -1 6 15 1 34 9 34 45 -3
16 -17 39 -30 50 -30 17 0 18 2 6 10 -12 8 -12 10 4 16 11 4 21 2 27 -7 7 -12
13 -11 36 2 15 9 34 14 41 12 7 -3 18 0 25 6 17 13 57 3 57 -15 0 -8 -4 -14
-10 -14 -5 0 -10 -5 -10 -11 0 -20 27 10 34 36 7 26 30 33 42 14 4 -7 15 -2
29 15 12 14 29 26 37 26 24 0 68 39 68 60 0 10 4 22 10 25 5 3 7 20 3 36 -4
21 -1 34 8 41 10 7 8 8 -8 3 -18 -5 -23 -2 -23 12 0 24 15 47 26 40 5 -3 17 1
27 8 12 8 14 15 8 20 -6 3 -11 15 -11 26 0 13 -7 19 -21 19 -18 0 -20 4 -14
23 14 41 17 103 7 137 -9 31 -10 26 -12 -45 -1 -44 -7 -100 -13 -125 -11 -40
-17 -48 -62 -69 -55 -26 -111 -29 -154 -8 -17 8 -35 11 -42 6 -7 -4 -26 -5
-41 -2 -21 4 -28 2 -28 -11 0 -19 -46 -22 -112 -6 -24 5 -59 12 -78 15 -24 3
-38 12 -45 27 -6 13 -19 25 -30 27 -28 5 -100 80 -118 122 -26 62 -29 129 -13
232 20 120 20 168 2 212 -14 33 -58 98 -82 120 -18 17 -44 64 -44 80 0 8 -9
23 -20 32 -11 10 -20 27 -20 39 0 12 -6 27 -14 33 -21 18 -26 109 -8 171 8 30
16 69 17 85 5 74 4 72 18 45 10 -19 23 -26 59 -32 51 -7 68 -14 68 -29 0 -5
-9 -4 -20 3 -24 16 -53 1 -58 -29 -8 -56 50 -105 85 -70 14 13 13 16 -6 26
-33 18 -11 51 34 51 39 0 42 8 20 50 -19 37 -3 85 35 105 15 8 78 19 139 25
114 11 145 6 164 -26 8 -14 37 -8 49 10 5 8 11 7 20 -2 6 -6 21 -12 32 -12 11
0 33 -12 48 -27 22 -21 28 -36 28 -67 0 -51 -7 -62 -46 -73 l-31 -8 23 -105
c34 -157 68 -267 104 -343 18 -37 35 -66 37 -63 3 2 -3 18 -11 35 -9 16 -16
38 -15 48 0 12 5 9 13 -11 9 -20 15 -25 19 -15 3 8 5 3 4 -11 -1 -17 4 -25 17
-28 16 -3 18 0 12 23 -7 26 -6 26 31 23 33 -3 38 0 41 20 2 12 -1 22 -7 22 -6
0 -11 7 -11 16 0 8 4 13 9 10 5 -4 12 0 14 6 4 10 8 9 16 -2 10 -13 12 -13 21
0 8 13 10 13 10 -2 0 -11 5 -15 15 -12 13 5 13 8 0 21 -17 16 -20 38 -5 28 6
-4 10 5 10 20 0 14 4 24 9 20 5 -3 12 -1 16 5 3 5 15 10 26 10 13 0 19 7 19
21 0 11 5 30 11 41 8 14 8 23 0 31 -8 8 -11 8 -11 -2 0 -7 -5 -9 -12 -4 -7 4
-22 8 -33 8 -11 0 -20 7 -20 15 0 9 7 14 19 12 16 -3 18 1 12 32 -7 36 9 52
20 21 4 -8 15 -15 25 -15 10 0 19 7 19 15 0 8 -7 15 -15 15 -8 0 -15 4 -15 9
0 5 -15 16 -32 25 -18 8 -28 16 -22 16 6 0 9 12 6 29 -3 19 1 30 12 34 9 4 16
3 16 -1 0 -12 47 -62 59 -62 6 0 11 -7 11 -15 0 -24 27 -18 34 7 9 36 7 95 -3
79 -7 -11 -13 -10 -32 7 -17 16 -26 19 -36 11 -9 -8 -13 -8 -13 -1 0 6 -6 9
-14 6 -17 -6 -29 25 -20 50 3 9 15 16 25 16 10 0 19 5 19 10 0 6 -7 10 -15 10
-8 0 -26 5 -40 12 l-25 11 22 25 23 24 -22 -6 c-14 -5 -23 -3 -23 3 0 6 -6 11
-14 11 -8 0 -26 13 -39 30 -31 36 -34 37 -40 8 l-4 -23 -8 23 c-4 12 -14 22
-21 22 -8 0 -14 8 -14 19 0 10 -7 24 -15 31 -22 18 -18 30 10 30 18 0 25 -5
25 -18 0 -11 8 -26 18 -34 14 -13 23 -13 51 -4 47 17 49 30 5 51 -20 9 -39 25
-41 35 -3 10 -21 24 -41 32 l-37 14 39 39 c21 22 33 41 27 43 -6 2 -11 12 -11
22 0 10 -9 20 -20 23 -20 5 -29 37 -11 37 6 0 12 19 14 43 l4 42 1 -42 2 -43
40 0 c37 0 40 2 40 28 0 15 -5 54 -11 87 -6 33 -11 111 -9 173 1 97 0 112 -14
112 -12 0 -16 10 -16 40 0 33 3 40 19 40 11 0 23 5 26 10 14 22 35 9 36 -22 1
-24 3 -27 6 -10 3 13 12 22 22 22 21 0 78 27 86 41 4 5 -3 9 -14 9 -16 0 -21
6 -21 27 0 20 -3 24 -12 15 -7 -7 -17 -8 -29 -1 -18 9 -18 11 -1 44 13 27 22
34 37 30 11 -2 35 -5 53 -5 27 0 32 -3 32 -25 0 -23 3 -25 48 -25 26 0 53 -5
60 -12 25 -25 12 17 -13 44 -17 18 -25 39 -25 63 0 35 0 35 45 35 33 0 45 4
45 15 0 8 7 15 16 15 12 0 15 6 10 25 -6 23 -3 25 24 25 25 0 30 -4 30 -25 0
-22 4 -25 40 -25 34 0 40 -3 40 -20 0 -17 7 -14 40 21 22 23 40 44 40 46 0 1
-18 3 -40 3 -29 0 -40 4 -40 15 0 11 -11 15 -39 15 -22 0 -41 -4 -43 -10 -2
-5 -19 -7 -41 -3 -30 5 -35 8 -26 20 17 20 8 24 -62 27 -35 2 -85 7 -111 11
-48 7 -48 7 -48 46 0 28 -4 39 -15 39 -9 0 -15 -9 -15 -25 0 -22 -4 -25 -40
-25 -22 0 -40 5 -40 10 0 6 -18 10 -40 10 -22 0 -40 4 -40 9 0 6 -19 12 -42
14 -24 2 -3 4 46 5 49 1 87 4 84 7 -3 3 -59 8 -124 11 -66 3 -120 7 -122 9 -7
7 -3 101 8 198 l13 107 571 1 c314 1 582 4 596 8 19 5 25 14 25 34 -1 14 5 29
12 31 6 3 10 -1 7 -7 -7 -19 17 -45 49 -53 24 -5 27 -3 27 20 l0 26 213 -2
212 -3 -3 -95 c-2 -52 -8 -140 -13 -195 -15 -162 -27 -337 -39 -550 -6 -110
-15 -276 -20 -368 -17 -286 -31 -653 -35 -872 -2 -115 -6 -239 -9 -275 -6 -69
-11 -164 -22 -380 -3 -74 -10 -156 -14 -181 -5 -25 -16 -156 -25 -290 -8 -134
-20 -309 -26 -389 -6 -80 -13 -182 -16 -227 l-6 -83 205 0 205 0 8 63 c4 34
11 127 15 207 4 80 13 208 19 285 18 229 31 416 46 665 29 468 29 460 17 460
-7 0 -12 5 -12 10 0 6 6 9 13 8 7 -2 12 7 12 22 0 14 -5 24 -12 23 -19 -4 -23
31 -18 152 4 125 13 185 26 185 11 0 11 -123 0 -199 -4 -30 -5 -68 -1 -85 5
-27 8 -21 18 41 15 88 16 323 2 323 -11 0 -14 53 -3 64 4 4 13 -8 19 -26 12
-32 12 -30 13 32 0 56 -1 63 -13 48 -7 -10 -16 -15 -19 -11 -10 9 -9 133 1
133 4 0 8 69 9 153 3 180 40 762 58 915 10 84 29 65 21 -22 -4 -40 -8 -174
-10 -297 l-4 -224 13 155 c7 85 19 191 26 235 7 44 12 143 11 220 -1 77 4 194
11 260 11 108 14 120 32 121 11 1 75 2 143 3 116 1 122 2 122 22 0 19 -4 20
-141 17 l-142 -3 7 130 c6 116 23 276 30 283 7 7 204 6 224 -1 l22 -8 0 140 0
141 -117 0 -116 0 6 98 c3 53 15 246 26 427 31 502 51 789 61 905 6 58 19 224
30 370 70 967 84 1148 100 1285 5 44 8 116 8 160 l-1 80 -9 -74 c-16 -114 -26
-63 -17 79 21 316 32 653 19 550 -14 -107 -50 -567 -65 -835 -8 -137 -23 -315
-33 -395 -11 -80 -25 -212 -31 -295 -34 -442 -41 -548 -51 -745 -15 -286 -48
-721 -60 -790 -11 -67 -43 -261 -64 -390 -9 -52 -20 -142 -26 -200 -5 -58 -23
-170 -39 -250 -16 -80 -32 -198 -36 -262 -5 -73 -12 -124 -21 -135 -12 -16
-13 -9 -14 52 0 49 -3 65 -10 55 -7 -10 -10 7 -10 58 0 83 29 484 36 491 2 2
4 -38 5 -90 2 -146 17 -56 23 136 6 159 5 161 -23 62 -6 -22 -8 -5 -4 58 6 95
21 160 22 96 1 -23 4 -32 11 -25 9 9 43 437 75 929 8 132 19 296 25 365 5 69
15 231 20 360 6 129 15 264 20 300 5 36 11 135 14 220 6 177 22 452 36 650 6
74 15 196 20 270 11 144 34 442 50 630 5 63 14 194 20 290 46 807 86 1422 110
1700 5 58 9 193 8 300 l-1 195 -13 -195 c-12 -175 -25 -357 -54 -740 -6 -69
-14 -197 -20 -285 -5 -88 -25 -358 -45 -600 -19 -242 -40 -505 -45 -585 -6
-80 -17 -224 -25 -320 -8 -96 -17 -215 -20 -265 -3 -49 -10 -137 -15 -195 -5
-58 -16 -229 -25 -380 -17 -303 -41 -564 -55 -589 -9 -18 -49 -443 -80 -856
-5 -65 -7 -122 -5 -125 2 -4 -3 -44 -10 -89 -8 -46 -12 -93 -9 -105 3 -13 -2
-70 -11 -127 -9 -57 -18 -117 -20 -133 -10 -64 -12 -29 -11 123 2 108 6 164
14 174 9 11 11 38 6 93 -4 51 -2 100 6 139 7 33 12 98 11 145 -1 47 3 144 8
215 6 72 18 245 26 385 26 458 35 594 40 635 6 49 15 334 10 320 -19 -49 -38
-230 -41 -385 -3 -154 -7 -187 -20 -200 -15 -14 -16 -11 -10 35 13 88 17 532
6 513 -6 -9 -10 -34 -9 -55 0 -21 -6 -96 -14 -168 -9 -71 -21 -200 -27 -285
-7 -85 -16 -188 -21 -229 -5 -41 -12 -129 -15 -195 -4 -67 -9 -123 -11 -126
-7 -7 4 288 12 325 5 21 4 26 -3 16 -7 -10 -9 40 -7 150 2 90 2 153 -1 139
-10 -66 -153 -2160 -174 -2575 -14 -267 -22 -348 -29 -315 l-6 25 -246 0 -247
0 -4 -118 c-6 -177 40 -161 -471 -168 -232 -4 -425 -7 -429 -8 -5 0 -8 -18 -8
-39 0 -63 -21 -155 -41 -184 -20 -28 -88 -54 -115 -44 -8 3 -14 16 -14 30 0
14 -5 28 -11 31 -24 16 -30 71 -30 296 0 143 -4 241 -9 244 -6 3 -10 21 -10
39 0 17 -4 36 -9 42 -5 5 -11 25 -14 44 -3 25 -5 17 -6 -25 l-3 -60 -14 45
-14 45 4 -80 c6 -106 0 -132 -30 -138 -35 -6 -67 51 -59 107 4 30 1 51 -14 80
-12 22 -24 55 -27 73 l-6 33 47 0 c33 0 52 -5 62 -18 13 -15 14 -15 9 10 -7
30 11 49 25 27 5 -8 9 -25 10 -39 0 -14 3 -19 6 -12 5 14 -14 98 -27 117 -4 6
-18 46 -33 90 -49 154 -115 534 -147 855 -11 113 -25 246 -31 296 -9 76 -8
101 5 153 19 73 21 105 6 81 -15 -25 -23 -2 -10 30 14 33 6 115 -12 126 -8 5
-9 -4 -5 -29 4 -28 2 -37 -9 -37 -8 0 -14 -4 -14 -10 0 -5 -11 -10 -25 -10
-29 0 -31 7 -9 31 13 14 13 20 2 38 -7 12 -19 21 -26 21 -7 0 -20 16 -28 35
-8 21 -21 35 -31 35 -14 0 -12 3 6 17 20 13 29 14 57 4 19 -7 39 -9 45 -5 12
7 9 93 -13 297 -10 93 -14 107 -30 107 -16 0 -18 -9 -19 -77 -2 -107 0 -123
15 -163 7 -19 18 -54 23 -77 8 -36 8 -43 -6 -45 -36 -8 -67 21 -86 77 -13 36
-22 52 -29 45 -21 -21 -26 -9 -10 20 17 28 17 30 0 49 -10 11 -15 24 -12 29 3
5 -4 27 -15 48 -11 21 -25 58 -31 82 -5 23 -14 42 -17 42 -4 0 -7 8 -7 18 0 9
-3 44 -7 77 -7 57 -13 82 -42 185 -7 25 -20 81 -30 125 -9 44 -21 90 -27 102
-12 24 -4 58 12 48 6 -3 7 0 4 9 -6 17 -44 17 -56 1 -13 -17 -9 -102 6 -137
35 -84 46 -151 26 -163 -9 -6 -14 8 -24 70 -12 77 -39 167 -46 154 -15 -28
-23 -101 -11 -109 16 -9 3 -38 -21 -46 -27 -8 -31 -1 -16 30 7 17 8 30 2 34
-18 13 -34 51 -24 57 6 3 10 1 10 -6 0 -7 9 -2 20 11 11 13 20 29 20 36 0 7
12 30 26 51 21 32 23 39 10 41 -12 3 -14 10 -10 28 4 14 2 24 -5 24 -6 0 -11
-5 -11 -11 0 -6 -11 -24 -25 -40 -13 -16 -22 -35 -19 -43 3 -7 -2 -19 -11 -26
-8 -7 -15 -19 -15 -27 0 -26 -31 -76 -41 -66 -12 12 -1 63 13 63 5 0 9 12 8
28 -3 45 -1 52 19 52 10 0 21 7 25 15 3 9 0 15 -9 15 -19 0 -21 66 -2 73 9 4
-60 2 -71 -2 -1 -1 2 -11 9 -22 7 -13 7 -19 1 -15 -19 11 -26 -11 -52 -154 -5
-30 -13 -91 -16 -135 -3 -44 -11 -84 -16 -90 -7 -7 -9 22 -4 91 l6 102 -25 4
c-28 6 -35 -7 -35 -63 0 -39 -1 -40 -32 -37 -33 3 -33 4 -30 49 l4 46 -39 -6
c-35 -6 -39 -9 -47 -49 -12 -53 -30 -55 -23 -2 4 32 2 40 -10 40 -13 0 -13 3
-3 15 13 16 12 17 -45 30 -50 11 -53 19 -48 105 l5 80 -25 0 c-33 0 -44 17
-24 38 13 13 19 13 31 2 14 -11 16 -6 16 42 0 56 -12 78 -42 78 -12 0 -18 8
-18 23 -1 28 -16 47 -61 75 -34 20 -98 30 -112 16 -3 -3 1 -27 9 -52 16 -51
35 -120 63 -222 13 -49 22 -65 34 -64 9 1 17 -3 18 -10 2 -35 11 -101 15 -105
2 -2 4 23 4 57 0 33 -5 64 -10 67 -6 4 -7 12 -3 18 4 7 9 21 10 31 7 45 13 24
13 -47 0 -62 3 -78 18 -86 15 -9 15 -10 1 -11 -10 0 -19 -12 -23 -31 -4 -24
-10 -30 -22 -25 -10 4 -22 -1 -30 -11 -11 -15 -13 -15 -14 -3 0 12 -4 11 -15
-4 -8 -11 -18 -16 -22 -12 -10 9 11 41 28 42 8 1 19 3 24 4 6 1 12 2 15 2 7
-1 -1 92 -9 101 -4 4 -7 -12 -7 -35 1 -38 -1 -42 -31 -50 -24 -6 -33 -15 -38
-39 -4 -18 -16 -35 -31 -41 -27 -13 -44 -4 -26 14 17 17 15 31 -4 20 -8 -5
-21 -20 -27 -33 -7 -13 -34 -35 -60 -48 l-47 -24 -23 21 c-13 12 -30 22 -38
22 -24 0 10 19 59 31 28 8 42 17 42 28 0 26 29 61 51 61 11 0 34 15 52 33 l33
33 -18 39 c-9 22 -18 48 -18 57 0 10 -13 27 -29 39 -38 28 -42 45 -24 116 7
32 16 74 18 93 2 19 11 55 20 80 14 36 16 71 13 177 -2 72 0 129 4 127 5 -3 8
-12 8 -20 0 -8 5 -14 10 -14 6 0 10 -7 10 -15 0 -12 3 -12 20 2 28 25 25 46
-12 77 l-32 26 -13 -31 c-7 -18 -13 -70 -13 -121 0 -64 -4 -93 -14 -104 -9 -9
-17 -10 -21 -4 -3 5 -21 10 -38 10 -20 0 -39 8 -50 20 -10 12 -29 20 -47 20
-16 0 -33 0 -37 0 -5 0 -8 -6 -8 -12 0 -19 -26 -37 -53 -38 -30 0 -51 42 -32
65 17 21 8 27 -37 28 -58 1 -126 -12 -148 -29 -16 -12 -18 -18 -7 -34 6 -11
12 -23 12 -27 0 -5 -4 -3 -8 4 -6 9 -20 6 -57 -13 -67 -33 -85 -29 -112 27
-23 48 -43 158 -24 127 6 -9 19 -14 29 -11 11 2 27 -4 37 -14 13 -13 20 -14
23 -5 2 6 11 12 19 12 26 0 113 63 118 84 2 12 6 32 7 46 3 21 9 25 41 28 22
2 37 -1 37 -8 0 -20 64 -50 107 -50 32 0 46 6 60 23 10 13 30 31 46 41 33 22
34 42 5 66 -17 13 -28 16 -41 9 -10 -6 -15 -14 -12 -18 6 -11 -23 -23 -36 -16
-15 10 43 66 65 63 13 -2 21 3 21 12 0 12 -12 15 -57 13 -56 -2 -91 -14 -188
-68 -39 -21 -53 -24 -106 -19 -33 4 -84 1 -114 -5 -29 -6 -55 -9 -58 -6 -3 3
0 15 6 28 6 12 14 37 17 55 15 77 47 112 144 159 52 25 68 27 213 31 l157 4
25 -25 c17 -17 26 -37 26 -57 0 -16 5 -30 10 -30 6 0 10 -11 10 -24 0 -14 4
-27 9 -30 4 -3 11 -27 14 -53 7 -61 46 -161 46 -122 1 15 8 32 16 39 10 8 15
31 15 66 0 29 4 63 9 76 25 66 31 117 16 151 -7 18 -21 39 -29 47 -9 7 -16 20
-16 30 0 32 -21 78 -38 84 -17 5 -53 26 -62 36 -3 3 -18 11 -33 18 -16 7 -31
21 -34 31 -3 12 -11 17 -23 14 -16 -4 -19 4 -24 59 -7 78 -22 724 -36 1523 -5
330 -12 627 -15 660 -3 33 -17 95 -32 138 l-26 77 -69 0 c-66 0 -68 -1 -58
-20 6 -11 9 -24 6 -28 -15 -24 -115 -35 -537 -58 l-117 -7 -17 27 c-10 16 -16
38 -13 56 l5 30 -53 0 c-59 0 -65 -8 -53 -73 3 -20 4 -39 0 -41 -3 -2 -56 -5
-118 -5 l-112 -2 -6 38 c-12 76 -15 83 -34 83 -10 0 -22 -10 -26 -22 l-8 -23
-4 23 -4 22 -368 0 c-284 0 -371 -3 -377 -12z m861 -204 c56 -57 109 -80 158
-69 18 5 89 7 160 7 77 -1 127 2 127 8 0 12 107 14 114 2 2 -4 60 -7 128 -6
200 2 88 -13 -177 -25 -358 -16 -408 -15 -458 10 -68 35 -108 71 -128 117 -25
58 -24 74 4 37 12 -16 44 -53 72 -81z m444 -491 c21 -196 20 -192 57 -233 20
-21 52 -44 72 -51 24 -8 122 -12 288 -13 139 -1 245 -4 236 -7 -28 -10 -488
-32 -526 -25 -18 4 -46 16 -61 27 -40 32 -40 16 0 -20 39 -34 38 -40 -4 -15
-66 39 -101 144 -101 305 0 182 21 198 39 32z m798 -2708 c42 -44 42 -61 -1
-81 -49 -24 -137 -4 -97 21 6 3 17 20 26 37 19 39 4 53 -35 33 -36 -19 -120
-30 -120 -16 0 6 7 11 16 11 9 0 30 6 47 14 54 24 61 25 96 21 23 -3 46 -16
68 -40z m505 -592 c-2 -21 -8 -43 -13 -49 -15 -19 13 -69 39 -70 12 0 22 5 22
13 0 15 16 18 24 4 4 -5 8 -33 11 -61 3 -28 8 -56 11 -62 3 -5 8 -24 9 -41 2
-18 7 -44 10 -59 9 -34 -1 -66 -16 -51 -5 5 -12 33 -16 63 -5 40 -11 54 -25
58 -22 5 -24 22 -2 22 12 0 15 6 10 23 -3 12 -6 27 -6 33 0 6 -11 12 -25 12
-20 0 -25 -6 -25 -24 0 -30 -1 -30 -40 6 -29 27 -33 38 -38 100 -4 65 -3 70
23 94 39 37 52 33 47 -11z m-791 -223 c19 -292 23 -443 10 -436 -6 4 -11 20
-11 36 0 28 -17 53 -42 63 -10 4 -10 8 2 16 8 5 18 7 22 5 4 -3 8 11 8 30 0
27 -3 34 -15 30 -11 -5 -15 1 -15 20 0 16 6 26 15 26 17 0 19 37 9 139 -5 39
-10 57 -15 49 -7 -10 -9 -9 -9 5 0 9 5 17 12 17 8 0 9 30 6 108 -4 72 -3 97 3
77 5 -16 14 -100 20 -185z m584 19 c9 -48 13 -54 38 -57 24 -3 27 0 27 24 0
44 18 16 30 -46 6 -29 11 -55 13 -56 9 -9 61 12 64 27 6 21 18 25 28 9 3 -5
12 -7 19 -4 15 6 26 -24 26 -68 0 -24 -4 -28 -30 -28 -19 0 -33 7 -40 20 -6
11 -15 18 -20 15 -4 -3 -10 0 -12 7 -7 19 -38 1 -38 -22 0 -11 -2 -20 -4 -20
-11 0 -60 30 -68 42 -5 8 -6 3 -2 -14 4 -20 2 -29 -10 -34 -20 -8 -21 -24 -2
-24 16 0 22 -30 25 -127 2 -72 2 -73 -22 -73 -19 0 -28 8 -36 32 -6 17 -7 34
-3 37 5 3 11 30 14 59 3 31 2 48 -3 40 -5 -7 -9 -21 -9 -31 0 -10 -4 -16 -8
-13 -12 7 -2 76 11 76 23 0 -39 34 -65 36 -23 2 -28 -2 -28 -21 0 -13 -4 -27
-10 -30 -5 -3 -10 1 -10 10 0 9 -7 23 -15 31 -17 17 -20 54 -5 54 12 0 14 33
3 44 -5 4 -8 28 -8 54 0 25 -5 47 -11 49 -6 2 -9 15 -6 29 7 39 26 22 34 -30
10 -70 14 -76 49 -76 l32 0 -7 64 c-6 57 -4 65 11 69 32 8 38 1 48 -54z m-470
-31 c-3 -35 -2 -58 4 -58 5 0 12 -44 16 -97 8 -125 11 -133 41 -133 26 0 28 8
18 59 -5 26 -10 30 -26 25 -17 -5 -19 -2 -16 23 2 15 8 27 15 26 7 -2 16 9 19
24 7 25 8 25 15 8 4 -11 8 -46 8 -78 1 -32 6 -67 11 -77 6 -11 12 -54 15 -97
3 -43 9 -114 15 -157 5 -44 8 -81 5 -84 -5 -6 -21 33 -29 71 -4 15 -13 27 -21
27 -8 0 -15 5 -15 10 0 6 7 10 15 10 17 0 18 4 9 49 -5 24 -12 31 -30 31 -17
0 -24 -6 -25 -20 -1 -11 -2 -26 -3 -32 -1 -7 2 -19 7 -26 7 -8 6 -17 -1 -24
-12 -12 -18 -3 -24 37 -2 11 -13 29 -25 40 -18 16 -23 35 -27 100 -3 44 -8
119 -12 166 -4 54 -3 98 4 118 7 18 7 31 1 31 -5 0 -9 24 -9 54 l0 54 26 -11
c24 -11 25 -15 19 -69z m279 60 c3 -13 7 -41 10 -63 3 -22 8 -50 10 -62 5 -28
9 -99 7 -142 -1 -27 -4 -31 -14 -22 -8 6 -17 8 -20 4 -13 -12 -36 66 -41 138
-3 41 -8 95 -12 122 l-7 47 32 0 c24 0 32 -5 35 -22z m996 -139 c0 -15 6 -43
14 -61 22 -53 36 -103 36 -129 0 -14 9 -42 20 -64 11 -22 20 -47 20 -57 0 -9
8 -23 18 -30 12 -9 18 -29 19 -68 l2 -55 -17 35 c-13 26 -24 35 -44 37 -19 1
-28 -3 -28 -13 0 -11 -9 -14 -32 -12 -26 2 -36 10 -50 38 -9 19 -17 45 -18 57
0 19 5 22 32 20 27 -2 33 -8 40 -36 7 -24 13 -31 24 -27 9 3 20 6 25 6 12 0
12 35 0 58 -5 9 -14 36 -21 60 -8 30 -16 42 -25 38 -7 -2 -16 1 -19 9 -3 9 0
12 9 9 11 -5 13 2 10 32 -3 20 -9 42 -13 48 -5 6 -9 24 -10 39 -1 15 -6 37
-12 47 -5 10 -10 38 -10 62 l0 43 15 -29 c8 -15 15 -41 15 -57z m-997 -181 c4
-10 8 -9 16 2 9 13 10 13 15 0 22 -70 56 -407 38 -381 -8 12 -14 12 -25 3 -12
-10 -16 -7 -21 20 -12 62 -12 71 7 74 28 4 34 14 9 14 -27 0 -45 33 -37 69 3
16 0 39 -9 55 -8 16 -12 34 -9 42 3 7 0 29 -7 49 -12 37 -8 65 9 65 5 0 12 -6
14 -12z m-977 -707 c4 -279 3 -312 -11 -301 -12 10 -15 10 -15 -4 0 -9 -4 -16
-10 -16 -5 0 -10 -7 -10 -15 0 -8 5 -15 10 -15 6 0 10 4 10 8 0 5 6 9 13 9 13
0 13 -7 8 -79 -2 -19 -32 -5 -41 18 -15 38 -12 71 8 94 9 11 19 30 22 41 6 23
-15 528 -25 604 l-6 50 21 -40 c21 -38 22 -56 26 -354z m2094 249 c0 -5 -11
-12 -25 -16 -30 -7 -32 -20 -6 -27 21 -5 41 9 41 29 0 14 48 13 70 -1 12 -8 9
-11 -15 -15 -20 -4 -35 -15 -45 -36 -8 -16 -25 -40 -37 -52 -23 -22 -31 -62
-13 -62 6 0 5 -8 -2 -20 -10 -15 -10 -22 0 -32 22 -22 13 -30 -27 -23 -46 8
-59 -6 -40 -41 14 -28 50 -32 70 -8 7 9 24 20 36 25 20 7 22 12 13 28 -17 33
-12 47 10 25 17 -16 19 -28 14 -66 -8 -56 -7 -55 -69 -98 -27 -19 -55 -41 -61
-48 -9 -12 -18 -6 -48 31 -21 26 -47 49 -59 53 -12 3 -29 12 -37 19 -8 7 -26
16 -40 19 -14 4 -42 14 -63 23 l-38 16 46 20 c25 11 45 26 45 33 0 8 4 14 10
14 5 0 22 13 36 30 15 16 30 27 34 25 10 -6 32 20 24 28 -12 11 8 47 26 47 11
0 22 11 29 30 5 17 17 30 25 30 8 0 19 6 23 14 13 23 73 28 73 6z m-1269 -61
c5 -8 9 -39 9 -70 0 -31 2 -58 5 -61 3 -3 17 -3 31 0 25 4 25 5 18 76 -5 55
-4 69 6 60 6 -7 15 -36 18 -65 6 -50 9 -54 37 -60 l30 -7 -29 -1 c-28 -1 -28
-2 -23 -43 5 -39 4 -41 -9 -24 -8 11 -14 25 -14 32 0 14 -46 24 -58 12 -14
-14 -45 2 -32 17 7 8 3 15 -14 23 -24 10 -36 46 -36 104 0 25 3 28 26 25 14
-2 30 -10 35 -18z m259 -82 c0 -8 10 -13 22 -13 15 1 27 -8 36 -26 18 -37 35
-36 30 2 -3 17 -1 30 4 30 4 0 8 -6 8 -13 0 -32 72 -66 96 -46 27 23 58 6 75
-41 12 -31 23 -46 38 -48 16 -3 21 2 21 17 0 12 4 21 8 21 15 0 32 -24 32 -44
0 -19 -7 -21 -66 -23 l-65 -2 -19 44 c-11 25 -23 45 -27 45 -25 -1 -53 -14
-53 -26 0 -20 -10 -17 -37 8 l-23 21 0 -26 c0 -23 -4 -27 -28 -27 -28 0 -38
11 -57 65 -12 31 -14 95 -4 95 5 0 9 -6 9 -13z m-2881 -156 c11 -7 11 -10 -2
-18 -14 -7 -13 -16 13 -67 35 -69 37 -86 11 -86 -13 0 -24 11 -33 35 -16 46
-46 44 -69 -4 -9 -19 -24 -40 -33 -46 -21 -16 -56 -8 -56 12 0 9 6 13 15 9 19
-7 41 32 26 47 -15 15 -105 -14 -109 -35 -2 -8 4 -23 14 -32 9 -9 17 -28 18
-41 0 -14 7 -27 14 -30 17 -6 15 -25 -2 -25 -8 0 -17 9 -21 20 -3 11 -18 40
-31 65 -22 39 -28 43 -45 35 -11 -7 -19 -7 -19 -1 0 5 6 12 13 14 9 4 8 8 -3
16 -13 10 -13 11 0 11 13 0 13 1 0 10 -13 8 -13 10 1 10 9 0 20 -7 23 -16 5
-13 16 -10 68 19 35 18 73 40 86 48 l22 14 -32 12 -33 13 46 -4 c27 -2 56 2
70 10 29 16 30 16 48 5z m3613 -44 c29 -22 44 -42 46 -61 4 -34 -10 -51 -61
-78 -22 -11 -45 -24 -51 -29 -64 -51 -76 -60 -77 -52 0 4 -4 -1 -9 -12 -7 -17
-10 -14 -28 25 -17 40 -67 90 -90 90 -4 0 -17 6 -27 14 -18 13 -17 15 21 35
74 40 129 74 142 88 25 25 87 16 134 -20z m-974 -85 c17 -8 28 -9 32 -2 8 13
60 -4 60 -20 0 -14 43 -13 58 2 10 10 14 8 18 -8 4 -16 12 -19 42 -17 33 2 32
1 -13 -11 -27 -8 -42 -14 -33 -15 9 0 20 -6 23 -12 5 -6 -10 -9 -42 -8 -47 1
-180 -26 -196 -41 -9 -8 15 -7 216 5 79 5 111 4 122 -5 10 -9 15 -9 15 -1 0 6
7 11 15 11 9 0 18 7 22 16 4 10 17 15 37 14 17 -1 33 -1 36 0 21 7 60 7 60 0
0 -5 10 -10 22 -12 19 -2 24 -11 29 -49 4 -26 16 -64 27 -85 48 -93 48 -93 21
-117 -51 -46 -52 -50 -23 -105 20 -39 27 -70 31 -139 3 -48 2 -85 -1 -81 -4 3
-18 59 -32 124 -25 119 -34 148 -34 103 0 -38 -56 -118 -90 -130 -16 -6 -27
-16 -24 -23 2 -6 -6 -22 -20 -35 -30 -29 -70 -25 -74 7 -2 16 -10 22 -27 22
-13 0 -27 -4 -30 -10 -13 -21 -35 -10 -35 18 0 16 -3 31 -6 35 -17 16 -123
-52 -124 -79 0 -6 -11 -20 -25 -32 -14 -12 -25 -27 -25 -33 0 -5 -4 -8 -10 -4
-5 3 -16 -8 -25 -25 -8 -16 -20 -30 -26 -30 -10 0 32 81 71 140 13 20 40 83
40 95 0 2 -16 5 -35 7 -19 2 -32 2 -30 0 5 -6 -31 -60 -57 -85 -10 -10 -18
-14 -18 -10 0 4 -9 -7 -21 -26 -11 -18 -22 -31 -25 -28 -7 7 49 118 92 182 18
28 37 64 43 80 l11 30 -22 -30 c-13 -16 -33 -38 -45 -49 -13 -11 -23 -24 -23
-30 0 -6 -14 -27 -31 -46 -17 -19 -37 -43 -44 -54 -16 -22 -45 -15 -45 12 0
10 9 27 20 37 13 12 20 31 20 55 0 30 8 44 50 84 48 46 64 86 41 101 -5 3 -13
20 -16 38 -13 56 -46 119 -61 113 -8 -3 -14 -1 -14 5 0 6 -9 8 -20 4 -23 -7
-23 -9 -11 33 9 29 -2 48 -11 20 -3 -7 -12 -6 -30 6 -25 16 -26 21 -21 69 3
29 8 54 10 57 6 7 53 -52 53 -67 0 -7 6 -13 14 -13 8 0 24 -8 37 -19 17 -14
30 -16 49 -11 14 5 42 11 63 15 20 3 37 10 37 14 0 15 -64 20 -76 6 -8 -11
-16 -7 -37 20 -32 40 -35 59 -7 52 15 -4 20 0 21 16 0 19 2 18 15 -8 9 -17 27
-36 42 -43z m-2541 -88 c2 -6 -17 -19 -42 -29 -25 -11 -45 -22 -45 -26 0 -12
43 -18 60 -9 22 12 60 -14 60 -40 0 -11 10 -28 21 -39 13 -12 19 -26 15 -36
-8 -23 -41 -3 -63 38 -9 18 -18 26 -20 20 -3 -7 5 -28 16 -47 12 -18 21 -36
21 -39 0 -3 -30 -3 -67 -1 -70 4 -123 19 -123 36 0 18 -36 56 -47 50 -6 -4
-18 -22 -27 -40 -14 -27 -15 -39 -6 -68 6 -19 13 -34 15 -34 2 0 10 -3 19 -6
11 -4 16 0 16 15 0 22 34 46 50 36 17 -11 11 -54 -9 -65 -35 -18 -63 -11 -98
27 -31 32 -35 41 -30 76 7 51 34 78 121 121 39 20 85 45 101 56 31 21 56 23
62 4z m1513 -219 c-23 -46 -53 -96 -66 -110 -14 -15 -21 -32 -17 -38 4 -7 -2
-5 -12 3 -13 10 -16 11 -11 2 5 -9 0 -19 -15 -30 -13 -9 -26 -17 -29 -18 -3 0
-18 -7 -35 -14 -40 -18 -156 -15 -194 5 -17 8 -41 30 -54 47 -25 33 -67 111
-67 124 0 6 47 -31 108 -86 18 -16 38 -21 90 -22 70 -1 162 17 162 33 0 5 6 9
14 9 8 0 17 7 20 16 3 8 10 12 16 9 5 -3 10 -2 10 4 0 5 9 20 20 33 50 58 58
70 76 114 14 36 20 42 22 25 2 -11 -15 -59 -38 -106z m-1414 -8 c4 -4 20 -7
36 -7 18 0 28 -5 28 -15 0 -8 -7 -15 -15 -15 -8 0 -15 -4 -15 -10 0 -12 44
-93 77 -142 14 -20 22 -41 19 -46 -6 -10 -133 -8 -159 3 -12 5 -16 14 -12 26
8 26 -19 25 -47 -1 -40 -37 -85 -20 -75 29 6 29 5 30 -19 21 -30 -12 -64 -13
-64 -2 0 12 68 52 89 52 11 0 33 12 48 26 21 19 36 25 60 22 38 -5 41 4 13 34
-10 12 -17 25 -14 29 6 10 40 7 50 -4z m152 -279 c7 -7 29 -11 50 -10 l37 2
-24 -19 -24 -19 41 -61 c46 -67 51 -81 25 -76 -10 2 -21 4 -24 4 -3 1 -23 26
-44 56 -20 30 -42 55 -47 55 -23 0 -16 -33 16 -82 48 -70 47 -82 -4 -73 -35 6
-40 5 -40 -13 0 -20 -18 -32 -47 -32 -10 0 -14 6 -10 20 5 18 2 20 -28 14 -48
-9 -53 10 -16 62 17 24 28 44 25 44 -3 0 -25 -11 -50 -25 -61 -34 -75 -31 -29
5 l38 30 -42 0 c-27 0 -41 4 -41 13 0 19 70 84 110 101 42 18 112 20 128 4z
m2910 -737 c20 -10 67 -48 105 -83 74 -69 83 -97 43 -124 -51 -33 -195 -75
-336 -99 -143 -24 -340 -37 -340 -23 0 5 -23 8 -50 8 -55 0 -106 17 -138 47
-38 34 -50 42 -55 37 -3 -3 -15 4 -28 17 l-22 22 60 58 c66 61 154 109 202
109 16 0 52 5 78 10 74 16 279 38 366 39 58 1 87 -4 115 -18z m2763 -563 c-6
-72 -11 -158 -11 -192 0 -34 -4 -67 -8 -73 -6 -10 -59 -12 -223 -9 -118 2
-220 5 -226 7 -21 4 -14 18 12 25 17 4 25 13 25 28 -1 19 -2 19 -11 4 -5 -10
-14 -18 -19 -18 -5 0 -10 8 -13 18 -3 14 -6 13 -14 -8 l-11 -25 -7 29 c-10 37
1 189 15 216 9 17 20 21 63 20 29 -1 81 4 115 10 35 6 72 8 83 5 25 -8 58 11
69 41 8 21 16 24 55 24 36 0 45 3 45 18 1 15 2 15 11 -2 9 -15 13 -16 20 -5 7
11 9 10 9 -4 0 -32 20 -7 21 26 1 19 3 24 6 14 3 -11 0 -78 -6 -149z m371 50
c-6 -57 -14 -134 -17 -173 -30 -356 -87 -705 -117 -705 -12 0 -10 29 7 90 9
30 22 111 30 180 8 69 26 199 40 290 14 91 33 224 42 297 9 73 19 130 21 128
3 -3 0 -51 -6 -107z m-6981 -593 c5 -82 12 -163 14 -180 3 -16 10 -110 15
-208 5 -103 16 -204 25 -240 9 -34 19 -120 22 -190 5 -112 9 -131 26 -148 16
-15 18 -21 8 -33 -16 -19 -106 -46 -131 -39 -26 7 -26 20 0 28 11 4 18 10 15
15 -3 5 4 11 15 15 12 4 17 11 13 18 -4 7 -8 34 -9 62 -1 27 -5 109 -8 182 -3
81 -2 134 4 138 6 3 9 25 8 48 l-1 42 -7 -45 -7 -45 -3 40 c-4 55 -7 82 -20
140 -23 112 -28 166 -25 273 2 66 0 112 -6 112 -5 0 -9 42 -9 95 0 79 3 96 18
104 25 14 32 -11 43 -184z m3531 -219 c16 -33 36 -77 44 -99 7 -21 22 -50 33
-65 31 -44 55 -140 42 -168 -6 -13 -15 -24 -21 -24 -5 0 -10 -5 -10 -11 0 -5
4 -8 9 -5 5 4 7 -3 4 -14 -3 -11 -14 -25 -24 -31 -11 -5 -19 -19 -19 -29 0
-13 -7 -20 -20 -20 -13 0 -20 -7 -20 -19 0 -10 -25 -44 -55 -76 -62 -66 -63
-69 -44 -215 16 -126 -2 -185 -80 -261 -86 -85 -107 -92 -248 -86 -176 8 -220
33 -230 131 -7 65 23 263 43 286 19 23 94 185 94 204 0 9 4 16 10 16 5 0 12
11 16 25 4 15 13 25 24 25 13 0 23 14 34 48 l16 47 -39 -45 c-22 -25 -41 -54
-41 -65 -1 -19 -2 -19 -9 -1 -7 18 -11 16 -48 -22 -22 -23 -46 -42 -52 -42
-21 0 -11 37 19 65 17 16 30 34 30 41 0 6 9 23 20 37 22 27 26 42 10 32 -23
-14 -8 11 22 35 29 25 31 28 20 60 -7 18 -12 43 -12 56 0 21 4 22 68 22 37 -1
88 2 115 7 40 6 51 5 68 -11 17 -15 19 -26 14 -61 -5 -38 -4 -43 13 -43 10 0
31 11 46 25 31 29 47 34 24 8 -10 -12 -14 -29 -11 -50 6 -38 10 -39 43 -16 48
33 52 56 14 76 l-27 14 47 12 c60 15 80 45 74 109 -3 26 -17 72 -31 103 -27
57 -37 100 -16 69 5 -8 24 -42 41 -74z m225 -1036 c19 -47 46 -57 62 -24 9 20
16 23 38 18 39 -9 44 -15 35 -49 -6 -20 -16 -31 -31 -33 -12 -2 -25 -10 -28
-18 -3 -8 -11 -14 -19 -14 -8 0 -14 -6 -15 -12 0 -10 -2 -10 -6 0 -11 27 -32
11 -39 -30 -4 -24 -9 -36 -11 -27 -3 11 -11 15 -24 12 -10 -3 -31 3 -46 12
-26 18 -27 17 -49 -9 -29 -33 -44 -33 -44 -1 0 30 -11 32 -34 7 -13 -15 -14
-24 -5 -50 11 -33 44 -40 65 -13 8 10 13 11 18 2 4 -6 0 -14 -8 -17 -9 -4 -16
-18 -16 -34 0 -16 -4 -32 -10 -35 -5 -3 -10 -1 -10 4 0 6 -11 11 -24 11 -44 0
-52 8 -48 45 4 29 1 34 -12 29 -18 -7 -21 -21 -5 -26 6 -2 8 -14 4 -31 -8 -32
-40 -37 -50 -8 -4 13 -19 20 -55 25 -26 4 -51 12 -53 19 -3 6 -6 2 -6 -10 -1
-24 -26 -32 -34 -10 -3 7 -6 4 -6 -7 -1 -14 4 -17 24 -14 29 6 28 7 16 -24 -6
-16 -23 -29 -50 -38 -39 -12 -41 -16 -41 -52 0 -23 5 -38 13 -38 7 -1 5 -6 -5
-14 -10 -7 -18 -24 -18 -37 0 -25 -25 -69 -39 -69 -12 0 -20 49 -10 56 5 3 9
13 9 22 -1 13 -6 10 -21 -10 -11 -16 -29 -28 -40 -28 -22 0 -25 16 -5 27 8 5
21 23 29 41 8 19 24 39 37 45 24 12 48 63 35 75 -4 4 -12 -1 -19 -11 -7 -9
-19 -17 -26 -17 -7 0 -18 -7 -24 -15 -8 -11 -25 -13 -73 -8 -61 6 -63 7 -63
34 0 22 5 29 20 29 18 0 40 26 40 49 0 5 -10 11 -22 13 -16 2 -25 12 -29 33
-5 23 -7 25 -8 8 0 -13 -5 -23 -11 -23 -5 0 -10 2 -10 4 0 2 -3 11 -6 19 -6
17 34 30 69 22 19 -5 23 -11 19 -36 -3 -17 0 -29 7 -29 6 0 11 -11 11 -25 0
-22 4 -25 40 -25 29 0 40 4 40 15 0 8 4 15 9 15 5 0 11 -7 15 -15 7 -19 26
-20 26 -2 0 8 -11 19 -24 26 -32 18 -41 78 -13 87 10 3 19 4 20 2 1 -1 10 -18
20 -36 10 -18 16 -40 13 -48 -3 -7 -1 -14 4 -14 6 0 10 23 10 51 0 43 4 55 29
77 44 41 54 48 86 59 17 6 29 15 28 20 -1 7 16 8 44 5 36 -4 48 -1 55 12 6 10
22 16 47 16 32 0 40 4 45 23 6 20 7 21 17 4 5 -9 7 -22 4 -27 -3 -6 5 -10 19
-10 17 0 26 -5 26 -16 0 -14 3 -14 15 -4 22 18 18 30 -10 30 -19 0 -25 5 -25
23 0 54 8 62 57 58 42 -3 47 -6 60 -41z m203 23 c8 -1 20 3 27 8 19 16 34 1
27 -28 -6 -22 -4 -24 15 -18 14 4 23 2 27 -9 9 -23 27 -20 19 3 -6 21 15 34
40 25 17 -7 17 -7 9 -28 -3 -9 -10 -16 -16 -16 -5 0 -16 -7 -24 -15 -9 -8 -30
-16 -47 -17 -74 -3 -83 -5 -104 -16 -29 -16 -33 -15 -33 8 0 11 7 20 15 20 8
0 15 5 15 10 0 6 -4 10 -9 10 -6 0 -8 17 -6 38 4 47 3 45 18 35 6 -4 19 -8 27
-10z"/>
<path d="M6275 11458 c-27 -61 -56 -126 -115 -253 -116 -250 -127 -285 -93
-303 29 -17 60 15 93 96 18 42 40 95 50 117 101 229 170 392 170 399 0 3 -17
6 -39 6 -37 0 -39 -1 -66 -62z"/>
<path d="M8051 11490 c-38 -98 -47 -163 -96 -760 -23 -277 -58 -687 -85 -975
-9 -105 -35 -399 -80 -905 -11 -129 -29 -327 -40 -440 -30 -324 -33 -408 -20
-479 32 -175 160 -296 342 -325 l70 -11 -4 -32 c-2 -18 -1 -33 3 -33 12 0 39
330 84 1030 14 217 30 456 35 530 13 174 21 395 11 295 -7 -65 -8 -66 -9 -20
-1 28 3 127 8 220 6 94 15 251 20 350 11 196 32 494 55 785 20 249 45 660 45
738 l0 63 -165 -3 -165 -3 -9 -25z"/>
<path d="M8466 11438 c-3 -46 -13 -222 -21 -393 -8 -170 -18 -361 -22 -424 -4
-84 -3 -112 6 -107 6 4 11 16 11 27 0 10 5 19 10 19 6 0 10 -10 10 -22 0 -13
4 -29 9 -36 17 -28 52 299 76 703 20 352 24 315 -29 315 l-44 0 -6 -82z"/>
<path d="M6417 10798 c-8 -609 -9 -1043 -3 -1037 12 12 25 1553 13 1565 -2 2
-7 -236 -10 -528z"/>
<path d="M1320 10164 c0 -25 7 -124 16 -221 14 -157 14 -196 -1 -182 -2 3 -8
41 -13 84 l-8 80 -8 -80 c-4 -48 -4 -90 2 -106 11 -27 206 -165 249 -176 53
-13 17 26 -87 95 -61 40 -110 78 -110 83 0 6 6 22 13 37 24 47 -19 432 -48
432 -3 0 -5 -21 -5 -46z"/>
<path d="M8612 9490 c-12 -151 -29 -363 -37 -470 -9 -107 -24 -301 -35 -430
-61 -710 -80 -1024 -61 -1004 12 12 26 132 51 439 11 138 24 306 30 375 6 69
19 244 30 390 11 146 27 351 36 455 8 105 14 264 12 355 l-3 165 -23 -275z"/>
<path d="M6406 9568 c-3 -62 -8 -358 -11 -658 -8 -724 -30 -1922 -55 -2900
-11 -437 -20 -863 -20 -946 0 -146 1 -151 23 -162 21 -12 60 -16 120 -13 26 1
28 4 27 34 -1 17 -1 41 0 52 1 18 2 17 11 -5 6 -13 7 -36 4 -50 -6 -22 -5 -23
8 -10 12 12 17 88 26 415 7 220 11 542 11 715 0 173 2 353 5 400 18 261 37
931 31 1060 -4 69 -8 163 -9 210 -1 47 -4 132 -7 190 l-4 105 -7 -115 c-4 -77
-6 -21 -5 170 0 157 -2 265 -5 240 -3 -25 -7 56 -9 180 -3 216 -4 211 -11
-145 -14 -741 -16 -929 -9 -885 l7 45 3 -45 c3 -32 6 -17 11 50 8 112 2 -407
-11 -875 -7 -256 -13 -343 -26 -390 -9 -33 -19 -82 -23 -110 -4 -27 -6 52 -4
177 1 126 4 231 6 235 3 5 8 310 11 678 3 369 9 875 12 1125 3 250 3 453 0
450 -3 -3 -12 -401 -20 -884 -9 -483 -18 -881 -20 -885 -5 -7 -19 -546 -17
-628 1 -31 -3 -54 -10 -59 -10 -6 -11 62 -6 302 14 645 17 1180 6 1144 -5 -19
-13 -114 -16 -210 -3 -96 -9 -256 -13 -355 -4 -99 -9 -355 -10 -570 -1 -214
-6 -412 -10 -440 -4 -28 -6 81 -4 250 2 165 6 669 9 1120 3 451 7 899 10 995
8 337 17 1110 12 1110 -3 0 -8 -51 -11 -112z"/>
<path d="M7730 9579 c0 -13 -7 -91 -15 -174 -8 -82 -15 -157 -16 -165 -1 -8
-5 -1 -9 15 -7 27 -8 26 -9 -15 -1 -25 -5 -63 -9 -85 l-7 -40 -6 50 c-4 28 -5
12 -2 -34 2 -47 9 -93 14 -104 7 -12 7 -47 0 -105 -6 -48 -11 -119 -11 -158 0
-38 -13 -232 -29 -430 -17 -197 -35 -426 -41 -509 -12 -163 -16 -185 -32 -185
-7 0 -8 22 -4 63 10 98 46 678 44 717 0 19 -6 -23 -13 -95 -17 -190 -17 -94 1
155 18 266 29 537 20 529 -9 -8 -33 -279 -46 -514 -5 -99 -14 -234 -20 -300
-6 -66 -19 -228 -30 -361 -21 -261 -30 -302 -94 -404 -90 -145 -87 -139 -76
-160 11 -20 14 -19 72 27 72 56 142 158 159 229 6 27 15 65 20 85 5 20 9 49 9
65 0 23 2 26 11 14 8 -11 9 -4 6 27 -3 24 -1 46 4 49 5 3 9 29 9 57 0 29 5 97
10 152 9 86 28 334 71 919 5 76 7 141 4 144 -3 3 -5 -8 -5 -24 0 -16 -5 -36
-10 -44 -7 -11 -9 -4 -5 25 2 22 9 108 15 190 6 83 16 208 21 278 6 71 8 131
5 134 -3 4 -6 -5 -6 -18z"/>
<path d="M8630 9013 c0 -27 -9 -147 -20 -268 -31 -357 -48 -557 -65 -780 -9
-115 -18 -235 -21 -265 -4 -38 -3 -52 4 -45 6 6 15 71 21 145 6 74 18 216 26
315 44 523 55 673 61 803 4 78 4 142 1 142 -4 0 -7 -21 -7 -47z"/>
<path d="M5213 7838 c-5 -7 -10 -38 -11 -68 -3 -60 -31 -172 -43 -165 -4 3
-12 -1 -18 -9 -15 -18 16 -31 35 -15 8 6 20 9 29 6 20 -8 26 5 52 103 25 98
28 131 11 148 -16 16 -43 15 -55 0z"/>
<path d="M1 6922 l-1 -583 58 3 57 3 -3 60 c-3 61 -60 638 -92 935 l-18 165
-1 -583z"/>
<path d="M6047 6958 c6 -309 30 -643 69 -963 25 -213 32 -255 61 -403 24 -122
27 -93 4 39 -60 340 -97 739 -117 1262 -7 194 -20 245 -17 65z"/>
<path d="M2407 7042 c6 -4 -77 -7 -185 -7 l-197 0 -3 -28 c-3 -24 -1 -27 20
-23 13 3 109 8 213 11 105 3 198 8 208 11 9 3 17 14 17 25 0 16 -7 19 -42 19
-24 0 -38 -4 -31 -8z"/>
<path d="M1205 4773 c-49 -13 -428 -33 -967 -49 -149 -4 -238 -11 -238 -17 0
-7 73 -8 218 -3 369 11 864 36 934 46 67 10 118 25 118 35 0 6 -4 6 -65 -12z"/>
<path d="M1180 3953 c-53 -4 -716 -32 -962 -39 -177 -6 -218 -10 -218 -21 0
-11 14 -13 68 -9 37 4 184 11 327 16 420 17 808 39 840 49 27 8 27 9 5 8 -14
0 -41 -2 -60 -4z"/>
<path d="M398 2554 c-2 -2 -55 -6 -118 -9 -63 -3 -152 -8 -198 -11 l-82 -6 0
-35 0 -35 103 6 c56 4 157 8 225 10 67 1 127 7 133 13 7 7 25 7 56 -1 36 -8
48 -7 51 2 3 9 8 10 17 2 9 -8 14 -7 18 4 3 9 15 12 31 9 29 -6 36 13 9 20
-12 3 -8 5 9 6 28 1 45 16 29 25 -5 4 -21 2 -36 -4 -15 -6 -32 -7 -38 -3 -20
12 -45 10 -40 -3 4 -10 -2 -11 -29 -3 -34 10 -134 20 -140 13z"/>
<path d="M300 2132 c-33 -5 -60 -30 -60 -55 0 -13 5 -17 16 -13 9 3 33 9 53
12 30 5 39 3 45 -11 3 -10 1 -24 -5 -31 -13 -16 -36 -19 -41 -5 -5 13 -68 25
-68 12 0 -6 -13 -11 -30 -11 -32 0 -37 9 -18 28 18 18 1 26 -57 26 -46 0 -55
3 -55 18 0 21 -16 23 -53 6 l-26 -13 -1 -208 0 -207 28 5 c15 3 20 2 12 -2
-29 -13 -40 -32 -40 -72 0 -28 5 -43 18 -50 16 -9 16 -10 0 -16 -16 -6 -18
-25 -18 -191 l0 -184 22 12 c12 7 30 22 40 33 17 19 17 19 18 -29 0 -40 -2
-46 -14 -37 -9 8 -21 8 -40 1 -22 -8 -26 -15 -26 -50 0 -35 3 -40 18 -36 21 7
47 -8 38 -22 -8 -14 14 -63 25 -56 5 3 9 -2 9 -11 0 -13 7 -11 35 11 19 14 35
33 35 40 0 8 5 14 10 14 7 0 7 -6 1 -19 -14 -26 26 -64 51 -50 11 6 18 6 18 1
0 -6 18 -12 40 -14 28 -2 40 0 40 9 0 9 -8 11 -24 7 -26 -6 -40 14 -29 42 4
11 12 13 27 9 11 -4 40 -10 64 -12 36 -4 42 -8 42 -29 0 -21 4 -24 40 -24 33
0 40 4 40 19 0 10 7 21 15 25 8 3 12 12 9 21 -3 8 -1 15 5 15 7 0 22 11 35 25
13 14 30 25 39 25 28 0 29 19 3 47 -15 15 -26 22 -26 15 0 -17 -80 -16 -80 1
-1 6 -9 2 -19 -10 -13 -16 -30 -23 -54 -23 -27 0 -37 -5 -42 -20 -9 -29 -45
-33 -90 -10 -21 11 -56 20 -77 20 -36 0 -38 1 -28 21 16 29 4 69 -20 69 -17 0
-20 7 -20 40 0 29 4 40 15 40 10 0 15 -11 16 -32 1 -18 3 -26 6 -16 2 9 20 24
39 33 40 19 43 31 9 39 -33 8 -33 49 0 82 14 14 25 31 25 39 0 11 12 15 40 15
22 0 40 5 40 10 0 6 -18 10 -40 10 -22 0 -40 5 -40 10 0 6 18 10 41 10 31 0
42 -4 46 -18 3 -13 14 -19 34 -19 l30 0 -27 22 c-30 24 -25 50 7 42 15 -4 19
2 22 47 l3 51 2 -52 2 -53 40 0 c38 0 40 2 40 30 0 29 2 30 44 30 53 0 69 16
57 56 -16 54 -23 64 -42 64 -25 0 -69 20 -95 42 -18 16 -20 27 -16 68 l5 50
-46 0 c-26 0 -48 -5 -51 -12 -5 -10 -7 -10 -12 -1 -4 9 -14 8 -39 -3 -45 -19
-45 -19 -45 16 0 28 2 30 40 30 29 0 40 4 40 15 0 11 -11 15 -40 15 -28 0 -40
-4 -40 -15 0 -8 -16 -22 -36 -31 -30 -14 -37 -15 -44 -3 -5 7 -13 10 -17 5 -4
-5 -2 -11 5 -13 6 -3 12 -11 12 -19 0 -17 -2 -17 -35 -2 -17 8 -22 14 -13 19
9 6 9 11 -1 23 -15 18 -16 17 54 33 22 5 39 14 38 21 -5 23 43 43 112 44 54 1
71 5 86 21 14 16 22 18 30 10 8 -8 16 -9 29 -1 34 21 71 -12 54 -49 -4 -10 -8
-22 -8 -26 -1 -4 -7 -12 -15 -16 -19 -12 -6 -28 29 -36 46 -10 46 -25 1 -25
-41 0 -41 0 -41 -39 0 -37 2 -40 33 -43 26 -2 34 -9 43 -36 l10 -32 23 24 c12
13 18 26 13 30 -14 8 -2 64 15 71 22 8 53 -4 53 -19 0 -8 -7 -19 -15 -26 -28
-23 -18 -40 25 -40 28 0 40 4 40 14 0 8 6 17 13 20 6 3 0 3 -15 0 -29 -6 -36
4 -18 22 8 8 6 15 -5 24 -25 21 -17 30 25 30 34 0 42 -4 50 -25 11 -30 30 -33
30 -4 0 11 4 17 10 14 6 -4 8 -15 5 -26 -4 -11 -2 -19 4 -19 6 0 11 7 11 15 0
27 30 29 56 4 l26 -24 24 28 c13 15 24 35 24 44 0 10 6 13 16 9 17 -6 16 4 -1
46 -5 12 2 21 24 32 38 20 38 20 44 -3 4 -17 16 -20 87 -23 45 -2 84 0 87 5 5
8 -25 11 -90 8 -40 -3 -51 1 -63 18 -9 12 -29 28 -46 37 -39 20 -52 30 -99 77
-33 32 -44 37 -84 37 -33 0 -45 -4 -43 -12 3 -7 14 -14 24 -16 27 -4 64 -100
44 -112 -14 -9 -60 8 -60 22 0 4 -7 8 -15 8 -15 0 -19 10 -16 43 2 10 -5 17
-14 17 -10 0 -15 7 -14 18 2 9 0 26 -4 38 -7 20 -14 21 -135 20 -77 0 -109 -3
-82 -7 l45 -6 -40 0 c-22 0 -53 2 -70 6 l-30 7 29 7 c40 11 26 20 -18 12 -21
-4 -36 -13 -36 -21 0 -10 -13 -14 -40 -14 -38 0 -55 13 -28 22 20 7 -5 14 -32
10z"/>
<path d="M846 813 c-2 -3 -2 -11 0 -18 8 -21 -32 -28 -122 -20 l-84 7 0 -31
c0 -29 3 -31 38 -32 20 -1 44 -1 54 0 9 1 19 -3 23 -9 9 -15 74 -12 91 4 8 8
14 22 14 31 0 36 69 31 88 -7 10 -21 11 -19 11 19 1 23 -4 45 -10 49 -13 8
-96 14 -103 7z"/>
<path d="M7 573 c-11 -11 -8 -363 3 -363 6 0 10 7 10 15 0 9 9 15 23 15 13 0
28 5 34 11 16 16 31 4 48 -38 24 -57 20 -70 -27 -85 -45 -14 -60 -34 -31 -41
11 -3 8 -5 -10 -6 -36 -1 -57 -22 -57 -55 0 -22 4 -26 30 -26 17 0 30 4 30 9
0 13 55 33 94 33 26 0 33 4 29 14 -3 9 1 14 12 14 9 0 13 -5 10 -10 -14 -23
10 -9 56 32 10 10 28 18 39 18 14 0 20 7 20 21 0 16 4 19 20 14 11 -4 20 -2
20 4 0 6 7 11 15 11 34 0 12 -46 -33 -67 -20 -10 -49 -32 -64 -49 -24 -27 -33
-31 -67 -28 -22 2 -42 0 -45 -4 -8 -13 124 -14 140 -1 10 8 14 8 14 0 0 -7 23
-11 63 -11 55 0 63 3 72 23 8 18 19 23 58 25 28 2 47 -1 47 -7 0 -6 18 -11 40
-11 34 0 40 3 40 21 0 24 -37 58 -62 59 -10 0 -18 -7 -18 -15 0 -8 -7 -15 -15
-15 -11 0 -15 11 -15 38 0 21 -6 44 -12 50 -10 10 -10 17 0 32 28 46 6 53 -45
14 -33 -25 -35 -25 -54 -8 -18 16 -19 16 -19 -4 0 -30 -14 -27 -43 8 -22 25
-33 30 -71 30 l-46 0 0 52 c0 40 -3 49 -12 40 -7 -7 -29 -12 -50 -12 -21 0
-38 -4 -38 -10 0 -5 -7 -10 -15 -10 -22 0 -18 16 8 37 12 10 27 28 33 38 6 12
24 21 43 23 29 3 31 6 31 42 0 28 5 39 17 42 15 3 15 4 1 19 -9 9 -18 27 -21
40 -4 23 -4 23 -6 -3 -1 -21 -5 -25 -21 -21 -14 4 -20 0 -20 -11 0 -10 -4 -15
-9 -12 -12 8 10 54 29 60 8 2 5 4 -7 5 -13 0 -23 -4 -23 -10 0 -13 -25 -39
-38 -39 -5 0 -15 7 -22 15 -7 8 -23 15 -36 15 -25 0 -33 -15 -11 -23 9 -4 8
-8 -3 -16 -18 -13 -21 -13 -40 -1 -12 7 -12 12 -3 21 10 10 9 15 -5 25 -10 8
-12 13 -4 14 6 0 12 5 12 10 0 11 -13 13 -23 3z"/>
<path d="M720 470 c0 -5 -18 -14 -40 -20 -29 -8 -40 -16 -40 -30 0 -24 22 -26
40 -5 7 8 19 15 26 15 8 0 14 5 14 10 0 6 11 10 25 10 20 0 25 -5 25 -25 0
-20 -5 -25 -25 -25 -16 0 -25 -6 -25 -15 0 -11 -11 -15 -40 -15 -22 0 -40 -4
-40 -10 0 -5 18 -10 40 -10 29 0 40 -4 40 -15 0 -9 -9 -15 -25 -15 -18 0 -25
-5 -25 -19 0 -27 -34 -66 -49 -56 -7 4 -11 15 -8 26 4 15 2 16 -14 6 -11 -7
-17 -18 -14 -25 3 -8 5 -31 5 -53 0 -27 4 -39 14 -39 8 0 16 -7 18 -16 2 -12
18 -17 61 -20 52 -4 57 -3 57 16 0 14 -6 20 -17 18 -14 -2 -19 8 -25 56 -9 71
7 106 47 106 22 0 25 -4 25 -40 0 -23 5 -40 11 -40 8 0 9 24 4 79 l-7 78 49
-2 c29 -1 34 -1 11 2 -34 4 -38 7 -38 32 0 15 -5 32 -12 39 -14 14 -68 16 -68
2z"/>
</g>
</svg>
