<?xml version="1.0" standalone="no"?>
<!DOCTYPE svg PUBLIC "-//W3C//DTD SVG 20010904//EN"
 "http://www.w3.org/TR/2001/REC-SVG-20010904/DTD/svg10.dtd">
<svg
          version="1.0"
          xmlns="http://www.w3.org/2000/svg"
          width="225.000000pt"
          height="225.000000pt"
          viewBox="0 0 225.000000 225.000000"
          preserveAspectRatio="xMidYMid meet"
        >
          <defs>
            <linearGradient id="grad1" x1="0%" y1="0%" x2="100%" y2="0%">
              <stop offset="0%" style={{ stopColor: "white", stopOpacity: 1 }}>
                <animate
                  attributeName="stop-color"
                  values="white; black;"
                  dur="4s"
                  repeatCount="indefinite"
                />
              </stop>
              <stop offset="20%" style={{ stopColor: "black", stopOpacity: 1 }}>
                <animate
                  attributeName="stop-color"
                  values="black; white;"
                  dur="4s"
                  repeatCount="indefinite"
                />
              </stop>
              <stop offset="40%" style={{ stopColor: "white", stopOpacity: 1 }}>
                <animate
                  attributeName="stop-color"
                  values="white; black;"
                  dur="4s"
                  repeatCount="indefinite"
                />
              </stop>
              <stop offset="60%" style={{ stopColor: "black", stopOpacity: 1 }}>
                <animate
                  attributeName="stop-color"
                  values="black; white;"
                  dur="4s"
                  repeatCount="indefinite"
                />
              </stop>
              <stop offset="80%" style={{ stopColor: "white", stopOpacity: 1 }}>
                <animate
                  attributeName="stop-color"
                  values="white; black;"
                  dur="4s"
                  repeatCount="indefinite"
                />
              </stop>
              <stop
                offset="100%"
                style={{ stopColor: "white", stopOpacity: 1 }}
              >
                <animate
                  attributeName="stop-color"
                  values="black; white;"
                  dur="4s"
                  repeatCount="indefinite"
                />
              </stop>
              <animate
                attributeName="x1"
                from="0%"
                to="100%"
                dur="4s"
                repeatCount="indefinite"
              />
              <animate
                attributeName="x2"
                from="100%"
                to="0%"
                dur="4s"
                repeatCount="indefinite"
              />
            </linearGradient>
          </defs>
          <g
            transform="translate(0.000000,225.000000) scale(0.100000,-0.100000)"
            fill="url(#grad1)"
            stroke="none"
          >
            <path
              d="M444 2077 c-39 -15 -77 -46 -92 -74 -6 -11 -13 -61 -14 -109 -3 -86
-1 -91 30 -136 24 -35 32 -57 32 -90 0 -24 4 -59 10 -77 8 -28 6 -38 -7 -53
-15 -17 -15 -18 18 -7 19 6 48 17 64 25 29 13 29 14 5 14 -14 0 -32 5 -40 10
-11 7 -5 10 25 10 35 1 38 2 23 14 -16 12 -14 14 21 26 30 10 38 17 36 31 -3
13 2 19 13 19 11 1 6 7 -13 17 l-30 16 33 14 c17 7 32 20 32 28 0 12 7 14 28
9 25 -7 26 -6 12 11 -14 17 -13 18 10 12 l25 -6 -25 19 c-31 24 -14 27 20 3
20 -14 23 -14 18 -1 -4 9 -1 21 5 27 8 8 8 11 -2 11 -7 0 -10 4 -6 9 7 12 -72
24 -125 19 -36 -3 -39 -2 -24 9 10 7 29 13 43 13 54 0 7 13 -54 15 -67 2 -78
-3 -81 -39 0 -11 -6 -22 -12 -24 -8 -2 -6 -11 4 -28 9 -13 13 -24 9 -24 -5 0
-1 -8 7 -17 18 -21 20 -53 4 -50 -33 6 -97 167 -67 167 5 0 7 8 5 18 -7 31 58
87 111 95 29 4 29 4 -5 6 l-35 3 30 9 c32 9 86 3 120 -14 30 -15 85 -69 101
-100 12 -21 20 -26 35 -22 11 4 34 1 50 -5 33 -14 83 0 93 26 3 8 19 14 35 14
42 0 130 20 137 31 3 5 -29 9 -75 9 -76 0 -82 -2 -117 -32 l-37 -33 6 34 7 35
-25 -24 c-18 -17 -28 -21 -36 -13 -8 8 3 19 41 38 28 14 64 28 78 30 15 2 47
11 71 19 24 9 53 16 65 15 13 0 5 -6 -22 -16 -56 -20 -44 -35 27 -32 90 4 111
-24 41 -56 -22 -10 -40 -22 -40 -28 0 -5 -7 -7 -15 -3 -8 3 -15 2 -15 -3 0 -5
-12 -12 -27 -16 -48 -11 -164 -68 -154 -75 10 -5 0 -24 -46 -90 -10 -14 5 -5
34 21 59 52 118 83 178 93 64 11 237 9 266 -2 15 -6 29 -9 32 -6 11 11 97 -39
161 -95 l30 -26 -32 44 c-34 47 -39 61 -22 61 15 0 110 -102 104 -111 -2 -4 2
-13 9 -21 35 -35 126 -152 122 -156 -2 -2 7 -26 21 -53 13 -27 21 -49 17 -49
-3 0 4 -11 17 -25 14 -15 18 -25 11 -25 -11 0 -11 -3 -1 -15 9 -11 11 -32 5
-78 -5 -34 -9 -107 -10 -162 -2 -79 1 -104 14 -119 15 -18 15 -18 -6 -7 -24
12 -28 7 -24 -28 2 -7 -2 -10 -8 -6 -6 3 -21 -4 -33 -16 l-23 -22 25 6 c14 4
40 7 58 7 18 0 31 3 29 8 -3 4 1 13 9 20 11 10 15 8 24 -9 7 -11 14 -18 17
-15 3 3 0 12 -6 20 -8 9 -10 24 -5 38 12 34 11 50 -4 82 -11 22 -11 30 -2 36
7 5 8 10 2 13 -12 8 0 235 14 259 2 3 -9 17 -26 30 -17 13 -32 34 -35 48 -2
13 -16 36 -31 51 -14 15 -24 29 -22 32 8 11 -66 109 -94 123 -22 11 -27 18
-18 24 18 11 -96 103 -180 145 -37 19 -89 39 -114 46 -25 6 -46 16 -46 21 0 5
-4 7 -9 4 -5 -3 -14 1 -21 9 -7 8 -18 15 -24 15 -6 0 -22 7 -34 16 -16 11 -20
20 -13 31 7 13 23 16 74 14 80 -3 95 13 30 33 -26 8 -38 15 -27 15 12 1 44 -5
70 -13 27 -8 68 -19 92 -26 53 -14 114 -49 106 -61 -8 -14 -22 -11 -45 12
l-22 22 7 -27 c8 -32 6 -32 -40 -1 -32 22 -48 25 -117 25 -46 0 -77 -4 -71 -9
12 -11 96 -31 133 -31 37 0 62 -9 55 -21 -10 -17 47 -30 81 -19 18 6 39 8 48
5 10 -5 25 8 46 39 50 73 144 117 214 100 l32 -8 -40 -7 -40 -6 35 -2 c24 -1
47 -11 74 -36 58 -51 64 -114 17 -193 -16 -27 -31 -58 -34 -68 -4 -15 -5 -15
-6 4 0 13 -5 21 -10 18 -12 -8 -8 18 6 35 18 24 24 68 12 91 -9 17 -9 23 0 26
7 2 2 14 -14 29 -14 15 -28 23 -32 20 -3 -4 -1 -7 5 -7 7 0 12 -5 12 -11 0 -8
-13 -10 -38 -6 -20 4 -51 3 -67 -2 -30 -8 -30 -8 12 -14 71 -12 55 -22 -30
-21 -87 1 -107 -3 -86 -17 9 -5 10 -9 2 -9 -6 0 -9 -8 -6 -19 4 -18 7 -18 39
-5 48 20 55 16 12 -7 -45 -23 -47 -28 -10 -21 26 4 27 4 7 -13 -20 -16 -19
-16 7 -12 20 3 29 -1 33 -14 4 -11 13 -19 21 -19 9 0 12 -5 8 -11 -4 -8 1 -9
17 -5 21 6 21 5 -4 -9 -25 -14 -26 -17 -12 -31 8 -9 13 -20 10 -25 -4 -5 -5
-9 -3 -9 16 -1 79 -29 66 -30 -31 0 -19 -19 15 -22 l32 -4 -35 -11 c-19 -6
-27 -12 -18 -12 9 -1 18 -5 20 -10 2 -5 17 -11 33 -15 l30 -6 3 92 c3 74 7 97
22 113 32 35 50 91 50 161 0 79 -19 125 -68 162 -77 58 -219 18 -326 -94 -7
-7 -35 2 -95 32 -105 52 -190 74 -297 74 -75 0 -210 -27 -252 -50 -28 -15
-132 -60 -140 -60 -4 0 -30 18 -57 41 -88 73 -178 101 -241 76z"
            />
            <path
              d="M750 1759 c-57 -43 -83 -72 -73 -82 3 -4 -6 -12 -21 -18 -15 -7 -36
-29 -48 -48 -12 -20 -31 -47 -42 -60 -12 -14 -15 -21 -6 -16 8 4 3 -5 -12 -21
-15 -16 -30 -42 -34 -57 -3 -16 -19 -38 -35 -50 -18 -13 -27 -27 -24 -37 3 -9
5 -48 6 -88 1 -45 5 -70 11 -66 6 4 6 -1 -1 -13 -7 -14 -7 -23 1 -31 7 -7 7
-19 0 -42 -7 -18 -7 -28 -2 -25 14 9 12 -6 -5 -35 -17 -29 -19 -76 -5 -85 6
-4 4 -17 -5 -36 -9 -16 -11 -29 -5 -29 5 0 10 6 10 14 0 7 8 20 17 27 12 10
15 10 9 1 -7 -12 10 -36 29 -38 6 -1 30 -5 55 -8 l45 -7 -25 20 c-13 11 -28
17 -32 15 -4 -3 -8 6 -8 21 0 23 -2 25 -22 14 -22 -12 -22 -12 -5 15 10 14 14
26 9 26 -5 0 -4 23 2 51 8 39 7 68 -6 132 -18 95 -17 160 4 185 8 9 24 42 34
72 10 30 23 60 29 66 5 6 26 31 45 54 19 24 47 57 62 73 15 16 24 35 22 42 -3
7 3 19 14 26 19 14 77 79 70 79 -2 0 -28 -18 -58 -41z"
            />
            <path
              d="M1116 1673 c-8 -34 -41 -67 -79 -79 -23 -7 -57 -33 -57 -44 0 -3 21
-5 47 -5 37 2 51 8 70 29 l23 27 2 -133 c1 -90 3 -115 7 -78 l6 54 18 -27 c10
-15 22 -25 26 -23 9 6 30 -36 32 -62 1 -10 4 -7 8 8 10 35 -8 73 -31 66 -15
-3 -18 0 -13 14 3 11 1 29 -6 41 -11 22 -12 22 -25 4 -12 -16 -14 -8 -12 59
l1 77 21 -26 c17 -21 31 -26 73 -28 50 -2 51 -1 35 17 -9 10 -36 27 -60 37
-34 15 -47 28 -61 61 l-18 43 -7 -32z"
            />
            <path
              d="M724 1638 c-48 -45 -104 -130 -104 -161 0 -10 11 -22 25 -27 29 -11
33 -36 8 -43 -13 -3 -14 -5 -3 -6 9 -1 23 -23 34 -53 18 -51 93 -138 120 -138
6 0 24 -7 40 -15 16 -9 31 -13 33 -11 11 10 -10 26 -47 36 -21 6 -49 23 -60
38 -12 15 -26 27 -31 27 -12 0 -29 25 -29 44 0 11 3 11 17 0 11 -10 14 -10 9
-1 -9 16 16 16 32 0 7 -7 12 -19 12 -28 0 -23 42 -60 69 -60 67 0 76 -38 32
-145 -25 -61 -27 -71 -13 -79 15 -9 50 23 109 102 25 32 46 81 23 52 -10 -12
-11 -12 -4 5 4 11 8 30 8 43 1 12 4 22 9 22 12 0 -19 67 -43 92 l-21 23 12
-30 c6 -16 15 -44 19 -61 6 -28 5 -31 -12 -26 -10 2 -28 21 -38 42 -11 21 -34
50 -52 65 -29 24 -37 27 -84 21 -53 -6 -84 -1 -84 15 0 4 8 6 18 3 15 -5 15
-4 -1 6 -15 10 -17 19 -12 51 5 26 3 45 -5 54 -10 12 -10 15 0 15 10 0 10 3 0
15 -7 8 -9 15 -4 15 5 0 9 14 10 30 1 18 14 47 33 70 41 52 32 51 -25 -2z"
            />
            <path
              d="M1491 1665 c29 -35 51 -87 46 -106 -4 -13 0 -19 11 -19 13 0 14 -2 4
-8 -13 -9 -18 -67 -10 -120 7 -43 -12 -53 -85 -45 -54 6 -58 4 -89 -28 -18
-19 -41 -49 -50 -67 -17 -32 -48 -44 -48 -18 0 8 9 36 20 63 l21 48 -30 -34
c-33 -39 -49 -108 -31 -141 6 -11 8 -25 5 -31 -6 -8 14 -37 70 -101 8 -10 15
-22 15 -27 0 -14 40 -25 51 -14 6 6 -2 39 -21 87 -17 43 -30 85 -28 94 3 18
38 38 81 47 22 4 33 16 48 50 11 26 27 45 36 45 10 0 13 -6 9 -17 -5 -15 -4
-15 9 1 15 20 15 19 15 -1 0 -11 -7 -26 -15 -33 -8 -7 -15 -9 -15 -6 0 4 -14
-9 -30 -28 -19 -21 -43 -36 -65 -40 -20 -4 -35 -13 -35 -21 0 -12 4 -12 28 1
15 7 32 14 37 14 17 1 89 59 102 83 10 18 12 19 13 4 0 -36 -29 -86 -60 -102
-26 -14 -29 -19 -19 -31 22 -26 70 -13 96 25 32 48 36 71 22 122 -8 27 -14 37
-16 27 -3 -10 -8 -18 -13 -18 -11 0 16 74 29 78 8 3 6 9 -6 19 -14 11 -15 15
-4 20 7 3 22 14 33 25 19 19 18 20 -7 66 -27 49 -61 89 -111 132 -19 16 -23
18 -13 5z"
            />
            <path
              d="M1855 1498 c24 -19 26 -23 11 -33 -13 -10 -9 -14 27 -26 23 -8 45
-14 49 -14 3 0 10 -3 14 -7 4 -5 -10 -8 -31 -8 l-38 0 19 -22 c19 -21 19 -21
0 -14 -16 5 -17 4 -6 -9 7 -8 16 -12 21 -9 5 3 6 -1 4 -9 -3 -7 5 -25 19 -40
28 -31 22 -35 -14 -11 -17 12 -15 7 8 -14 17 -17 32 -32 32 -34 0 -2 -16 -3
-37 -3 l-36 2 23 -19 c12 -10 19 -18 15 -18 -5 0 0 -9 10 -20 10 -11 13 -20 7
-20 -7 0 -21 9 -32 20 -11 11 -20 16 -20 12 0 -5 9 -17 20 -27 11 -10 18 -20
16 -24 -5 -8 20 -31 28 -25 3 2 3 1 0 -3 -3 -5 -11 -8 -17 -8 -14 -1 -14 -1
13 -76 11 -32 22 -73 24 -94 4 -31 2 -34 -10 -25 -7 7 -12 16 -9 20 3 4 -2 23
-10 41 -8 19 -14 27 -15 19 0 -13 -2 -13 -11 0 -9 12 -10 12 -5 -4 4 -11 11
-38 16 -61 5 -23 14 -54 20 -69 14 -37 3 -32 -15 7 -14 32 -14 32 -10 -28 3
-43 2 -52 -4 -30 -9 30 -9 30 -10 4 0 -15 -7 -41 -15 -59 l-13 -32 -12 33
c-15 42 -25 31 -46 -51 -9 -36 -32 -93 -52 -127 -19 -35 -32 -67 -29 -72 3 -5
-1 -11 -9 -15 -9 -3 -15 0 -15 9 0 7 -5 17 -12 21 -7 5 -9 1 -6 -12 4 -14 0
-20 -13 -21 -11 -1 -19 5 -19 13 0 8 -5 14 -10 14 -6 0 -8 10 -4 24 3 14 1 27
-7 31 -9 6 -11 2 -6 -14 5 -20 3 -22 -19 -17 -17 5 -26 2 -31 -10 -5 -13 -7
-13 -14 -2 -6 9 -9 7 -9 -9 0 -26 19 -41 30 -23 5 9 9 8 13 -3 10 -27 -8 -39
-28 -17 -10 11 -22 20 -27 20 -13 0 -9 -32 8 -60 15 -25 15 -25 8 -1 -4 14 -2
21 4 17 11 -7 23 -46 13 -44 -19 2 -18 -4 4 -27 14 -13 25 -35 25 -49 0 -14 5
-28 12 -32 11 -7 9 15 -8 73 -5 18 -1 22 23 25 17 2 27 8 25 17 -1 7 16 -1 38
-19 25 -20 39 -38 36 -47 -3 -8 -1 -11 4 -8 6 3 10 1 10 -4 0 -6 5 -11 11 -11
7 0 8 7 4 17 -4 10 -8 25 -8 33 0 8 -6 23 -12 33 -19 27 -8 51 38 88 38 30 84
48 71 27 -4 -5 -13 -7 -23 -3 -11 4 -13 3 -5 -5 14 -14 42 -3 47 18 3 10 3 2
1 -16 -1 -17 -1 -32 1 -32 11 0 34 66 29 85 -3 13 -1 26 5 30 6 3 9 11 6 16
-4 5 -1 9 5 9 6 0 8 5 5 10 -3 5 -1 10 6 10 7 0 10 13 7 35 -4 39 10 47 33 18
12 -16 12 -17 -1 -8 -9 6 -7 2 5 -9 18 -17 20 -17 23 -1 5 23 -7 67 -16 61 -4
-3 -14 -1 -21 3 -10 6 -9 11 3 24 9 8 16 27 16 40 0 14 5 27 12 29 11 4 18 68
8 68 -3 0 -6 19 -7 43 -2 68 -10 124 -18 137 -10 17 35 51 58 44 9 -3 17 -1
17 4 0 12 -24 22 -53 22 -20 1 -20 2 -5 13 15 12 15 14 0 25 -9 7 -12 10 -6 7
7 -2 14 1 17 9 4 10 -4 12 -38 9 -24 -3 -45 -1 -49 5 -4 7 5 9 28 5 21 -3 36
-1 41 7 5 8 4 11 -2 7 -5 -3 -10 0 -10 7 0 8 6 12 14 9 7 -3 13 -2 13 2 0 10
-27 35 -33 29 -2 -3 -3 9 -1 26 2 16 -1 30 -6 30 -6 0 -10 13 -10 29 0 39 -9
61 -26 61 -8 0 -14 4 -14 10 0 5 -7 7 -15 4 -10 -4 -15 0 -15 15 0 13 -11 26
-30 36 -41 21 -47 19 -15 -7z"
            />
            <path
              d="M576 1442 c-3 -6 -4 -22 0 -35 3 -14 1 -28 -5 -31 -16 -10 -13 -113
5 -171 10 -34 13 -69 9 -110 -6 -61 13 -135 35 -135 5 0 26 -17 47 -37 38 -38
38 -38 41 -13 2 13 19 42 37 63 19 21 31 45 28 53 -3 8 1 14 9 14 8 0 25 14
37 31 l24 32 -29 -15 c-115 -58 -103 -56 -143 -22 -25 21 -30 22 -25 7 3 -10
-4 -3 -16 15 -14 20 -20 42 -18 57 3 14 1 25 -4 25 -13 0 -2 124 16 178 5 16
2 31 -11 50 -10 15 -21 33 -24 41 -4 10 -8 11 -13 3z"
            />
            <path
              d="M1663 1433 c-3 -10 -15 -28 -25 -40 -16 -17 -18 -25 -9 -42 7 -11 13
-41 15 -65 2 -24 7 -49 10 -55 4 -6 5 -15 2 -19 -2 -4 -7 -30 -10 -57 -3 -26
-13 -59 -21 -72 -18 -27 -30 -31 -21 -6 6 14 3 14 -16 -3 -38 -35 -44 -35
-104 -7 -33 15 -63 29 -69 31 -5 3 8 -14 30 -37 21 -22 35 -41 31 -41 -5 0 10
-20 33 -45 47 -51 48 -59 21 -100 -11 -16 -20 -24 -20 -17 0 6 -5 12 -11 12
-6 0 -9 -9 -6 -20 3 -11 1 -23 -4 -26 -5 -3 -9 -13 -9 -23 0 -16 10 -18 94
-17 62 0 92 4 90 11 -3 6 -12 12 -22 13 -9 1 -38 5 -64 8 -36 4 -48 3 -48 -7
0 -9 -3 -10 -11 -2 -19 19 57 120 114 149 15 8 25 19 22 23 -2 5 2 21 9 37 11
21 12 41 6 73 -6 32 -3 65 12 125 19 80 19 157 -1 164 -5 2 -7 19 -4 38 6 36
-3 47 -14 17z"
            />
            <path
              d="M336 1249 c9 -15 -39 -31 -73 -26 -26 5 -32 3 -26 -6 19 -25 9 -51
-25 -59 -18 -5 -30 -13 -27 -19 4 -5 10 -7 15 -4 14 8 61 -6 54 -16 -8 -13 10
-11 26 4 8 6 5 0 -8 -14 -25 -29 -30 -48 -7 -29 19 16 19 1 0 -24 -17 -23 -20
-40 -5 -31 15 9 12 -12 -5 -28 -15 -16 -19 -132 -5 -152 4 -5 10 -29 14 -51 4
-30 2 -43 -7 -47 -8 -3 -14 -21 -15 -44 0 -34 1 -36 10 -15 14 28 34 28 49 1
9 -17 8 -20 -2 -14 -8 6 -10 4 -3 -6 4 -8 9 -20 10 -26 1 -7 9 -20 18 -28 11
-11 13 -22 7 -38 -6 -16 -3 -33 10 -57 l18 -35 1 33 c0 17 2 32 4 32 3 0 17
-11 32 -25 15 -14 33 -24 39 -21 6 2 17 -5 23 -15 18 -29 29 -23 27 15 0 19 3
32 7 30 14 -9 9 2 -27 62 -19 32 -35 62 -35 67 0 4 -3 6 -7 4 -5 -3 -6 15 -4
39 2 27 -1 44 -8 44 -6 0 -11 7 -11 15 0 25 -18 17 -28 -12 l-10 -28 -7 32
c-4 18 -12 31 -19 30 -13 -2 -15 93 -3 133 4 14 -4 3 -18 -25 -14 -27 -22 -39
-18 -25 3 14 12 47 19 74 9 34 10 54 3 65 -8 12 -8 10 -3 -9 3 -14 3 -22 -1
-18 -5 5 -17 -6 -27 -23 -17 -28 -38 -32 -38 -6 0 8 3 7 9 -2 6 -10 13 4 21
45 7 32 21 74 33 93 11 19 16 31 10 28 -7 -4 -14 -3 -18 3 -8 12 20 42 30 32
4 -4 5 -2 4 3 -2 6 3 21 10 35 l14 25 -25 -22 c-30 -28 -42 -30 -29 -4 6 10 7
21 4 25 -3 3 0 6 8 6 8 0 19 8 26 18 9 15 8 19 -3 19 -7 0 -11 -4 -8 -8z"
            />
            <path
              d="M835 912 c-30 -6 -55 -32 -55 -58 0 -13 -5 -26 -11 -30 -9 -5 -10 1
-5 20 6 23 4 27 -11 24 -10 -1 -23 1 -30 5 -7 5 -9 1 -6 -13 3 -11 9 -20 14
-20 5 0 9 -10 9 -21 0 -16 -3 -19 -12 -11 -14 11 -99 21 -92 11 2 -3 -8 -11
-22 -18 -37 -16 -21 -30 23 -20 21 4 62 6 91 2 50 -6 52 -5 52 19 0 37 8 39
42 6 29 -28 62 -45 101 -53 10 -2 28 -7 40 -11 45 -14 -5 27 -69 57 -65 31
-99 59 -72 59 8 0 20 12 27 26 14 31 13 32 -14 26z"
            />
            <path
              d="M959 885 c-5 -57 25 -101 104 -151 21 -14 43 -36 49 -49 10 -22 8
-29 -12 -50 -36 -38 -103 -65 -163 -65 l-53 0 -39 -60 c-21 -33 -40 -60 -42
-60 -6 0 17 41 48 86 41 60 22 64 -31 7 -25 -27 -38 -40 -30 -29 36 52 83 94
99 90 9 -3 5 1 -9 10 -24 14 -27 13 -68 -27 -54 -52 -104 -122 -94 -132 4 -5
1 -5 -5 -1 -9 5 -13 0 -13 -16 0 -13 -5 -29 -12 -36 -9 -9 -9 -12 2 -13 8 -1
19 -1 23 0 4 1 3 -8 -3 -19 -6 -11 -14 -20 -19 -20 -9 0 -6 -88 3 -97 3 -4 6
8 6 26 0 37 31 104 38 82 2 -7 -2 -17 -9 -22 -11 -7 -11 -9 2 -9 9 0 21 10 28
23 6 12 9 14 7 5 -3 -11 0 -18 8 -18 8 0 21 -12 31 -26 12 -19 19 -23 25 -14
6 9 10 7 14 -8 4 -12 17 -24 28 -28 12 -4 30 -16 41 -28 10 -11 15 -15 11 -7
-4 8 9 2 30 -14 36 -27 37 -27 52 -9 9 10 13 13 9 6 -4 -8 5 -17 24 -25 17 -7
28 -17 24 -22 -5 -4 -3 -5 3 -2 6 4 22 -5 35 -19 l23 -25 19 23 c10 13 15 17
11 9 -5 -9 -3 -12 4 -7 7 4 12 14 12 22 0 8 4 13 9 10 12 -8 72 49 63 60 -4 4
1 2 11 -5 15 -12 17 -11 18 10 1 19 2 20 6 5 3 -10 0 -23 -6 -29 -6 -6 -11
-15 -11 -21 0 -6 5 -5 12 2 7 7 20 12 31 12 11 0 15 4 11 12 -5 8 -2 9 10 5
12 -5 20 1 28 18 6 14 15 26 20 26 4 1 13 2 19 3 16 2 37 46 32 67 -3 11 -9
16 -14 14 -4 -3 -6 -12 -2 -20 3 -8 1 -15 -5 -15 -13 0 -22 82 -11 94 14 15
39 16 39 1 0 -7 5 -15 12 -17 7 -3 9 -11 4 -24 -12 -28 -15 -74 -5 -74 5 0 12
12 15 26 5 19 9 22 15 12 6 -9 9 -7 9 8 0 26 25 50 35 34 3 -5 1 -10 -4 -10
-15 0 -14 -27 1 -36 8 -5 9 -2 5 9 -3 10 -2 17 3 17 16 0 30 -37 30 -77 1 -31
2 -35 11 -20 12 21 9 66 -6 86 -7 11 -7 13 1 8 7 -4 14 2 17 15 4 12 2 25 -4
29 -13 7 -39 57 -45 82 -4 22 -91 126 -110 134 -29 11 -35 -3 -12 -27 13 -14
41 -47 63 -75 36 -47 35 -47 -17 10 -63 67 -85 69 -41 3 37 -54 45 -68 40 -68
-2 0 -20 24 -40 54 -36 55 -37 55 -88 54 -68 0 -159 45 -174 86 -9 27 -7 31
40 70 94 77 115 102 115 134 0 41 -17 50 -25 13 -6 -27 -9 -29 -38 -25 -21 4
-39 0 -52 -11 -20 -16 -20 -16 2 -6 25 13 63 14 63 3 0 -4 -14 -13 -30 -19
-22 -8 -36 -24 -48 -52 -9 -23 -21 -41 -25 -41 -5 0 -5 5 -2 10 3 6 1 10 -4
10 -6 0 -11 15 -11 34 0 25 5 36 18 38 9 3 -2 6 -25 9 -23 2 -39 1 -37 -3 3
-5 12 -8 20 -8 10 0 14 -13 14 -52 0 -57 -8 -56 -38 3 -9 19 -31 41 -49 49
-43 20 -42 33 1 28 19 -2 32 0 29 5 -3 5 -23 7 -44 4 -32 -4 -39 -2 -39 11 0
10 -5 24 -10 32 -8 13 -10 12 -11 -5z m119 -353 c61 17 262 -17 262 -44 0 -13
-12 -10 -32 9 -18 16 -18 16 -3 -13 8 -16 15 -40 15 -54 -1 -23 -1 -24 -12 -6
-10 18 -11 18 -24 -5 -8 -15 -14 -19 -14 -9 -1 9 -5 6 -10 -7 -11 -26 -30 -31
-30 -7 0 20 -19 8 -30 -20 -9 -26 -40 -31 -40 -7 0 11 -3 12 -8 5 -4 -7 -26
-14 -49 -16 -38 -5 -43 -3 -52 21 -5 14 -10 19 -11 11 -1 -10 -4 -9 -10 5 -8
18 -9 18 -10 -5 -1 -23 -2 -24 -14 -8 -7 10 -16 15 -19 11 -4 -3 -10 8 -13 26
-6 29 -8 30 -20 14 -12 -16 -13 -15 -14 14 0 17 5 35 10 38 6 3 10 11 10 17 0
6 -9 3 -20 -7 -17 -15 -20 -16 -20 -3 0 15 42 33 68 29 6 -1 20 3 30 8 9 5 18
6 20 1 2 -4 20 -4 40 2z"
            />
            <path
              d="M753 690 c-37 -22 -48 -37 -48 -70 0 -14 -8 -36 -18 -50 -9 -13 -17
-20 -17 -14 0 5 6 16 13 24 6 8 0 5 -14 -8 -14 -12 -29 -19 -32 -15 -4 3 -7 1
-7 -5 0 -6 -7 -9 -15 -6 -8 4 -15 13 -15 21 0 8 -5 11 -10 8 -7 -4 -7 -12 0
-25 12 -23 -5 -38 -17 -15 -8 13 -12 13 -28 2 -22 -17 -30 -54 -14 -74 10 -11
9 -12 -5 -7 -9 3 -16 15 -16 26 0 10 -5 16 -10 13 -6 -4 -8 -10 -5 -15 3 -5 1
-11 -5 -15 -5 -3 -7 -17 -4 -31 4 -17 2 -24 -6 -22 -7 2 -15 -3 -18 -11 -3 -9
0 -11 8 -6 13 8 12 -7 -5 -47 -10 -25 12 -23 25 2 6 11 16 17 22 14 6 -4 9 -3
6 2 -3 5 7 22 23 37 16 16 29 23 29 18 0 -6 5 -11 11 -11 5 0 8 4 5 8 -2 4 -1
14 5 22 7 12 9 11 9 -4 0 -18 1 -18 20 -1 11 10 20 13 20 7 0 -7 -4 -12 -10
-12 -5 0 -6 -7 -3 -17 5 -12 3 -14 -8 -8 -11 7 -12 6 -2 -6 8 -9 9 -20 3 -29
-6 -8 -9 -28 -9 -45 l1 -30 10 30 c6 17 17 37 24 46 11 12 11 18 1 28 -6 7 -7
12 -2 11 24 -5 35 1 35 20 0 11 25 49 56 86 31 36 53 68 50 72 -5 5 -27 -13
-106 -88 -3 -3 -13 -11 -22 -19 -16 -12 -18 -11 -18 3 0 10 4 15 9 12 12 -8
43 29 34 39 -5 4 -3 5 3 2 6 -4 29 8 50 26 21 18 48 39 59 47 19 14 19 14 5
-5 -11 -15 -8 -14 13 4 24 22 25 25 9 37 -17 13 -37 6 -88 -31 -17 -13 -21
-13 -21 -1 0 8 22 24 49 37 59 27 65 35 40 48 -14 7 -27 5 -49 -9z"
            />
          </g>
        </svg>